<svg width="83" height="80" viewBox="0 0 83 80" fill="none" xmlns="http://www.w3.org/2000/svg">
<path d="M40.9977 30.3468C40.8751 30.5455 40.8755 29.3772 40.7312 29.298C40.1227 28.9559 39.8832 28.1268 39.1346 27.603C38.6271 27.2484 37.5106 27.3088 36.4595 26.7195L33.9883 26.3192C31.6336 25.5342 28.251 23.0357 27.5609 20.9311C26.8038 18.8626 27.9787 17.828 29.5282 16.3076C29.5284 16.3075 29.5285 16.3074 29.5287 16.3072C29.5865 16.2535 29.6452 16.1995 29.7049 16.1451C30.817 15.0912 32.3778 14.3095 33.6684 13.1461C34.8759 11.9156 43.1653 4.31178 42.8294 3.18147C42.5639 2.32532 40.5483 1.99286 39.9578 2.56901L38.2927 2.2993C38.79 2.91387 39.235 3.56896 39.426 3.5231C39.6975 3.45625 40.1116 2.46797 40.4742 2.31627C41.668 1.8312 42.1774 2.62106 43.6443 -1.33514e-05C43.9589 1.50084 44.2635 3.00599 44.5361 4.51487C45.2589 3.93021 45.9272 5.99391 46.3181 5.96631C46.6492 5.94293 47.0763 4.8551 47.4361 4.88034C47.8445 4.90354 48.1313 6.25063 48.8262 6.25031C49.1994 6.25321 49.5537 5.96181 49.901 5.56207L50.8259 5.90302C51.569 5.12545 52.3218 3.86268 52.7658 3.77591C53.4379 3.63999 53.5813 5.48987 54.6727 4.82049C54.8915 4.55628 55.11 4.292 55.3283 4.02768C55.5757 3.31913 55.8223 2.61025 56.0681 1.90103C56.5456 1.73392 56.0678 3.19938 56.3634 3.36366C56.7165 3.56052 57.5037 2.32302 57.7539 2.44495C57.9586 2.54616 57.7452 3.73024 58.0436 3.78817C58.4682 3.87457 59.1019 2.31466 59.4463 2.12818C59.5711 2.04863 61.5809 1.97719 61.6865 2.01721C62.4245 2.30361 61.4731 4.40206 61.9449 4.86441C63.2601 6.14505 65.9011 5.44574 68.1519 6.06173C68.5178 6.15867 68.866 6.32394 69.1792 6.53383C68.9147 6.35111 68.92 6.40082 68.983 6.51211C69.0536 6.6295 69.1964 6.8247 69.3564 7.05951C65.258 11.4491 65.0938 16.7553 69.1525 8.41591C69.3223 10.0794 71.5125 8.56039 72.3087 9.71779C72.8104 10.4694 72.4272 11.8067 73.3125 12.5934C74.8314 13.8894 79.3184 13.7613 74.3192 18.0794C76.6309 19.3133 75.2863 21.973 80.8796 20.2382C81.4948 20.6892 78.9037 23.4424 78.636 24.1007C78.5145 24.855 78.0535 29.0536 78.0081 29.5979C78.0236 29.9183 78.0552 30.3634 78.1666 30.7787C78.2529 31.0761 78.402 31.3492 78.6632 31.5093C79.3586 31.9113 85.3814 31.547 78.5234 33.361C79.2164 34.3489 79.0566 34.7547 78.338 35.7953C78.2076 35.9831 77.1701 36.0999 77.1785 36.1999C77.1976 36.4052 77.9976 36.6885 78.1221 37.0512C78.3263 37.65 76.1602 38.1557 79.5006 37.8393C80.0916 38.2013 80.6807 38.5704 81.2679 38.9434C80.631 39.1283 79.9935 39.3104 79.3557 39.4897C80.0727 39.6618 80.7895 39.8392 81.5058 40.02C76.6469 40.0296 79.5818 41.3816 82.3401 40.7645C81.3746 41.6078 80.4002 42.4342 79.4172 43.2408C73.9026 43.2764 78.8157 44.9384 81.8104 44.777C81.8072 44.869 81.8038 44.9607 81.8003 45.0519C80.3411 45.869 81.5413 46.6087 80.5391 47.6103C79.5334 48.6054 78.9943 48.4957 76.4487 48.7103C76.5856 48.9434 76.7204 49.1927 76.8535 49.4379C80.1513 50.2286 79.0965 50.5237 77.6799 50.7919C76.9692 50.9464 76.1703 51.0767 75.7607 51.3721C75.5573 51.5061 75.4485 51.7036 75.4921 51.9599C75.5279 52.2466 75.7383 52.5636 76.037 53.3219C76.156 53.5164 76.2945 53.7328 76.4526 53.9736C71.9349 54.0006 72.9988 56.6581 72.7953 58.8875C72.7869 59.1288 73.4162 59.6991 73.4302 60.0699C73.4348 61.0123 71.6027 61.2105 73.4436 63.2259C72.98 63.1102 72.526 62.9801 72.0802 62.8385C71.6985 62.6367 71.3176 62.4343 70.9374 62.2311C71.0507 62.7831 71.1577 63.3398 71.2667 63.8946C71.8103 64.5538 72.3541 65.213 72.8978 65.8722C70.6294 63.9673 70.671 65.3785 69.8999 65.1068C69.7443 65.0512 68.9873 64.1476 68.5803 64.0631C68.1037 63.9578 67.8703 64.5926 67.3493 64.5362C68.0487 65.6483 68.7455 66.7623 69.4391 67.8784C69.3327 68.8648 67.0171 66.2989 66.5388 66.3307C66.4607 66.335 65.5419 67.3459 65.5239 67.4481C65.3828 68.2755 67.3006 70.5318 65.3849 71.1178C65.034 71.2241 64.2374 70.5386 63.9537 70.6809C63.4944 70.9141 63.2243 73.8084 64.1306 75.737C62.1156 73.8595 60.649 75.8759 59.5776 75.4947C59.2763 75.37 58.5337 73.8495 57.7911 73.7684C57.2167 73.6989 56.2437 75.4962 55.3124 75.4981C54.3623 75.4921 53.7421 74.1515 53.3427 74.1248C53.0379 74.1036 52.8605 74.8631 52.4965 75.1994C52.4599 75.2767 52.417 75.3274 52.3648 75.3325C51.5352 75.3943 50.5738 73.6386 49.9306 73.6725C48.9947 73.7179 48.4817 77.1891 47.7658 78.7673C47.5413 78.5642 47.2775 77.8516 47.0624 77.8615C44.379 77.9614 41.2286 77.4718 38.2313 76.6083C36.7982 76.262 33.7254 71.1723 33.5649 78.9342C32.8301 80.286 28.257 76.0337 26.8534 75.0653C26.0644 74.644 25.046 74.6435 24.0189 74.4161C23.6953 74.4985 23.3846 74.536 23.2125 74.4214C21.8186 73.4791 21.5777 72.0318 19.3043 71.6823C18.7163 71.5942 17.2125 72.4536 16.9885 72.2266C16.7241 71.9534 17.496 70.5115 17.2179 70.1133C16.5432 69.1838 14.6515 68.0125 14.0873 66.9667C13.9869 66.776 14.9714 65.7889 15.107 65.2862C15.6395 63.3299 14.776 62.4821 11.441 65.4294C12.4459 62.6515 9.7745 62.892 8.77511 61.6047C7.95003 60.537 7.08959 58.8842 6.26959 57.0026C5.69926 55.6221 4.79413 53.9532 3.15484 52.9828C1.43215 51.9044 -0.476738 52.753 0.107055 48.986C0.248217 48.134 0.534101 47.2287 0.768843 46.1693C1.30603 43.5289 4.85457 41.5111 0.416072 39.9194C1.5722 37.4903 1.03343 35.6147 5.00635 34.895C4.13736 34.5804 3.27175 34.2531 2.40964 33.9137C2.4317 33.678 2.45467 33.4489 2.48041 33.2163C3.3451 33.3236 4.20902 33.4355 5.07213 33.552C5.08135 33.5276 5.0896 33.5028 5.09691 33.4778C5.78762 30.8892 5.51547 29.8429 5.2731 28.3692C5.02254 27.0016 4.76893 25.7558 5.165 25.1433C6.50928 22.9192 10.941 19.6983 13.0443 19.2568C14.1558 18.9871 12.8712 17.6475 15.969 19.9497C15.923 19.6186 15.8808 19.2851 15.8425 18.9494C15.3475 18.2619 14.8587 17.5691 14.3701 16.8766C15.2421 15.9792 17.1846 15.9706 18.0356 15.225C18.6968 14.6418 19.2519 13.6322 19.9059 12.6587C21.2705 10.9612 22.9616 9.50022 24.7473 9.56194C25.539 9.58176 26.9985 10.8012 27.5331 10.5465C28.3142 10.1805 27.4396 7.43748 28.5359 6.97058C30.4961 6.1265 34.6391 8.50031 36.1139 7.99893C36.5787 7.83815 36.6151 6.75152 36.94 6.58286C38.2841 5.8726 39.4268 5.82344 40.6983 4.06759C42.4235 6.69384 42.4222 10.2594 42.9835 13.8098C43.4264 16.49 44.2905 22.7309 44.3137 25.097C44.3589 26.7573 44.1941 28.8937 44.267 30.7211C43.5906 32.1898 43.2231 30.603 42.2156 28.1108C40.7963 28.3472 39.4033 28.6997 38.1936 29.1391C37.8162 28.2082 37.4231 27.2827 37.0134 26.3634C37.0128 26.3613 37.0121 26.3592 37.0115 26.3571C36.1234 25.4205 36.6854 27.9463 36.6477 28.5775C36.4235 31.1858 35.8392 32.1342 35.25 32.3715C33.0814 33.7325 29.9997 34.5284 28.5027 35.7336C27.8838 36.2136 27.7356 38.6572 26.2309 38.0553C25.8223 37.911 24.5031 37.1189 24.3844 37.1831C24.462 37.6379 24.5734 38.0663 24.764 38.3691C24.8597 38.5185 24.9763 38.6369 25.1352 38.6531C25.2957 38.6443 25.4956 38.6477 25.8082 37.9824C26.0331 38.3761 26.2798 38.7177 26.5432 39.0133C25.2444 39.6315 25.1494 40.2526 25.4752 40.6695C25.7984 41.1048 26.5907 41.6323 27.3126 42.7823C27.9261 43.7598 28.7136 45.0004 29.5086 46.3448C31.2056 48.5166 35.0321 51.5842 38.4454 53.8873C37.4965 53.2314 37.1272 53.17 37.031 53.1363C36.9377 53.1191 37.1029 53.1898 37.3715 53.2631C38.031 53.4562 39.5572 52.3995 40.7959 53.132C41.3141 53.4377 41.6122 55.9052 42.307 54.0413C42.3372 54.7063 42.3677 55.3712 42.3984 56.0361C43.0481 55.2089 43.3948 53.676 44.134 53.4758C44.7565 53.314 46.4573 53.0724 47.0697 53.263C47.3865 53.3592 47.3991 54.6079 47.6829 54.5723C48.1753 54.5021 49.0189 52.694 49.6883 52.5923C49.686 52.5925 49.6837 52.5927 49.6814 52.593C49.4685 52.6188 49.3267 53.0173 49.3481 53.3571C49.3587 53.6995 49.5026 53.9776 49.5005 53.8666C49.5371 53.0725 49.4025 50.7369 50.8933 50.3777C51.3061 50.2869 52.7223 51.2495 52.8121 51.1268C52.9833 50.8839 52.114 49.5776 52.1411 49.3054C52.2765 47.9345 54.6799 48.4082 55.563 47.7866C56.3886 47.209 57.1967 46.5343 58.0019 45.8169C58.1211 45.6832 58.0613 45.6217 57.7609 45.9241C57.4813 46.2014 56.8757 47.0332 56.5392 48.2678C56.4345 48.6654 56.3991 48.8676 56.378 48.9753C56.356 49.095 56.3507 49.1321 56.3475 49.1527C56.3427 49.1848 56.3531 49.1146 56.3658 49.0176C56.3922 48.8185 56.4324 48.5053 56.4829 48.1719C56.751 46.4835 56.4042 42.9894 57.4606 41.0493C57.6909 40.6263 59.4103 40.6316 59.3883 40.28C59.3628 39.8908 58.1912 39.7624 58.0849 39.5921C57.3498 38.3773 55.9138 35.9258 56.9227 34.7546C57.1183 34.5236 58.4244 34.173 58.4004 34.0533C58.3973 34.0339 58.2988 34.0216 58.1626 34.0087C57.8789 33.9973 57.4306 33.9949 57.3525 33.918C56.3293 32.9475 56.6575 32.2922 56.6626 31.5702C56.6618 31.0688 56.3772 30.865 56.0741 30.8003C55.9146 30.7612 55.7503 30.748 55.4866 30.662C55.3511 30.617 55.1936 30.5562 54.9353 30.4288C54.6543 30.2815 54.3743 30.1617 53.433 29.5391C52.9532 29.2316 52.4381 28.8411 51.8732 28.2718C51.3872 27.776 52.1161 25.1645 52.0032 25.1365C51.7601 25.073 50.8147 26.5986 50.18 26.7778C48.0848 27.3598 46.7159 24.6379 44.7622 24.7527C44.11 24.7931 42.9755 25.5558 42.0082 26.0739L43.517 26.6301C43.2236 26.959 42.9872 27.2423 42.8284 27.3645C42.449 27.6713 41.9999 26.6767 41.6472 27.6341C41.4591 28.2142 41.1332 30.1216 40.9977 30.3468ZM73.1405 14.5283C70.7615 16.4842 74.2089 16.4997 74.8884 14.7576C75.0261 14.336 73.7607 14.0073 73.1405 14.5283ZM43.2102 72.6607C43.2563 73.5432 43.3029 74.4256 43.3499 75.308C43.5309 74.9333 43.7076 74.5579 43.8823 74.182C43.7509 73.6562 43.6217 73.1301 43.4946 72.6038C43.4 72.6229 43.3052 72.6419 43.2102 72.6607Z" fill="white"/>
</svg>
