<svg width="403" height="413" viewBox="0 0 403 413" fill="none" xmlns="http://www.w3.org/2000/svg">
<path d="M2.14844 0H4.56543L8.8623 1.61133L30.3467 7.25098L42.9688 10.4736L53.1738 12.8906L66.6016 16.1133L81.3721 19.873L86.4746 21.4844L88.0859 22.29L89.4287 23.9014L89.6973 24.4385L89.9658 27.6611L91.8457 29.8096L94.5312 32.4951L96.6797 34.375L99.6338 37.3291L101.782 39.209L108.765 46.1914L110.913 48.0713L118.164 55.3223L120.312 57.2021L122.729 59.6191L123.267 59.8877V60.4248L124.341 60.9619L128.638 65.2588L129.443 65.7959V66.333L130.518 66.8701V67.4072L131.592 67.9443L133.74 70.0928V70.6299L134.814 69.5557L136.963 66.0645L139.38 63.1104L142.603 60.1562L144.751 58.2764L148.242 55.3223L152.808 52.3682L157.104 50.2197L161.133 48.6084L167.847 46.7285H168.384L168.921 42.4316L170.532 37.3291L171.875 34.1064L174.023 30.0781L175.903 27.6611L177.515 25.7812L180.469 23.9014L182.617 23.3643H185.303L187.72 24.1699L190.137 26.0498L192.017 28.7354L193.628 32.4951L195.508 38.6719L197.119 48.3398L197.656 52.3682L203.027 55.0537L207.593 58.0078L210.547 60.1562L213.501 62.5732L216.724 65.7959L219.141 69.2871L221.558 73.584L223.706 78.9551L225.317 84.3262L226.392 90.2344L227.197 97.7539V102.856H231.226L235.522 103.931L239.819 106.079L242.773 107.959L246.265 110.913L249.756 114.136L252.979 117.896L255.664 121.924L257.007 123.804H261.572L266.675 124.341L272.046 125.415L277.148 127.295L281.177 129.443L284.937 132.129L288.159 135.083L291.382 138.843L294.067 142.871L296.753 147.705L298.901 152.808L300.513 158.984L301.05 162.207L301.318 165.698V176.44L300.781 183.423L297.559 208.667L297.021 216.455V225.854L298.096 227.466L300.244 229.346L307.227 236.328L309.375 238.208L313.403 242.236L315.552 244.116L319.043 247.607L319.58 247.876V248.413L320.654 248.95L324.951 253.247L327.1 255.127L332.471 260.498L334.619 262.378L339.722 267.48L341.87 269.36L344.019 270.972L346.704 272.314L348.047 273.657L349.658 275.806L351.27 278.223L354.761 281.714L358.789 287.085L361.743 290.308L366.309 294.873L368.188 297.021L382.69 311.523L384.839 313.403L395.581 324.146L397.461 326.294L400.146 328.979L402.026 331.934L402.295 334.082L401.221 338.11L399.609 344.287L397.998 348.584L395.85 352.881L393.164 357.715L391.016 360.938L387.524 365.771L384.033 369.8L381.079 373.022L375.439 378.662L372.485 381.079L368.994 384.033L363.892 387.524L361.206 389.404L355.029 393.433L349.927 396.387L346.973 397.729L344.287 398.535L339.99 393.97L338.647 392.896L336.768 390.747L334.619 388.867V388.33L333.545 387.793L324.951 379.736L309.375 364.16L307.495 362.012L305.347 360.132L304.004 358.789L302.124 356.641L300.244 358.252L291.382 367.114L289.233 368.994L286.011 371.948L283.057 374.365L279.565 377.319L275.269 380.542L270.972 383.496L266.406 386.45L260.767 389.941L254.053 393.701L249.756 395.85L243.042 399.072L234.717 402.563L227.197 405.249L218.335 407.935L210.547 409.814L201.416 411.426L194.165 412.231H174.292L165.43 410.889L157.104 409.009L149.585 406.86L143.945 404.712L136.694 400.952L131.592 397.998L127.563 395.312L124.878 393.164L121.655 390.21L118.164 386.45L115.747 382.69L114.404 380.005L113.33 376.514L112.524 371.411L111.987 364.966L111.719 354.492V339.185L111.987 330.054L112.524 320.117L113.062 306.689L113.599 292.725L113.867 280.103L114.136 272.314V253.784L113.33 238.745L112.793 235.522L111.182 233.105L108.765 230.688L104.736 227.734L100.708 225.049L96.4111 222.363L93.1885 220.215L88.0859 216.724L83.7891 213.501L80.2979 210.547L75.4639 205.713L72.5098 201.685L70.0928 197.388L67.6758 191.748L66.0645 186.377L64.7217 178.857L64.4531 176.172L62.3047 173.218L59.6191 169.458L56.665 163.818L55.3223 160.059L54.7852 158.179V154.15L55.8594 151.196L58.2764 149.048L61.499 147.974L64.1846 148.242L68.2129 149.316L70.3613 150.391L71.4355 150.122L73.8525 147.437L76.2695 145.02L79.7607 142.603H80.2979L79.4922 141.26L77.6123 139.648V139.111L76.5381 138.574L75.1953 137.231V136.694L74.1211 136.157V135.62L73.0469 135.083L70.0928 132.129V131.592L69.0186 131.055L60.9619 122.998L59.082 121.387L57.2021 119.238L55.0537 117.358L53.7109 116.016L50.4883 113.062V112.524L49.4141 111.987L35.9863 98.5596L33.8379 96.6797L30.3467 93.457L26.3184 89.4287L22.29 89.6973L21.4844 89.4287V88.8916L20.4102 88.3545L19.6045 87.0117L18.5303 81.6406L14.2334 66.0645L11.5479 56.3965L9.66797 48.0713L8.3252 41.8945L6.44531 33.8379L4.02832 22.0215L1.34277 9.13086L0 4.29688V2.68555L1.07422 1.07422L2.14844 0ZM343.481 388.33L343.75 388.867L345.361 389.404H346.704L346.436 388.867L344.556 388.33H343.481Z" fill="#F0BECC"/>
<path d="M87.5488 38.6719L88.8916 39.209L92.1143 42.1631L94.7998 44.5801L97.4854 47.2656L98.291 47.8027V48.3398L99.3652 48.877V49.4141L100.439 49.9512L102.051 51.2939L103.931 53.4424L105.273 54.7852L107.153 56.3965V56.9336L108.228 57.4707L113.599 62.8418L114.404 63.3789V63.916L115.479 64.4531L117.627 66.6016L118.433 67.1387V67.6758L119.507 68.2129L121.655 70.3613L123.267 71.7041L127.563 76.001L129.175 77.3438V77.8809L130.249 78.418V78.9551L131.323 79.4922L132.129 80.2979V80.835L133.203 81.3721L137.5 85.6689L139.38 87.2803V87.8174L140.454 88.3545L142.603 90.5029L143.14 90.7715V91.3086L144.214 91.8457V92.3828L145.288 92.9199L151.465 99.0967L153.613 100.977L159.521 106.885V107.422L160.596 107.959L165.698 113.062L166.235 113.33V113.867H166.772V114.404L167.847 114.941L174.023 121.118L176.172 122.998L180.469 127.295L180.2 129.712L181.543 128.369L183.423 125.684L186.377 121.118L187.451 117.896L188.257 113.599V106.616L187.72 102.588L186.108 97.2168L183.96 92.9199L181.812 90.2344L179.126 88.3545L177.515 87.8174H172.949L170.801 88.623L167.847 90.5029L164.355 93.1885L161.67 95.874L160.596 95.6055L158.716 93.9941L154.688 89.9658L154.15 89.6973V89.1602L153.076 88.623L150.391 85.9375L149.854 85.6689V85.1318L149.048 84.8633L147.705 83.5205L145.557 81.6406L141.797 77.8809V76.2695L143.408 73.3154L146.094 69.8242L146.362 69.2871H146.899L147.437 68.2129L153.076 62.5732L157.373 59.8877L162.476 57.4707L167.847 55.8594L171.069 55.3223H177.246L183.96 56.665L189.331 58.2764L193.628 59.8877L198.193 62.0361L202.49 64.7217L206.25 67.4072L208.667 69.2871V69.8242H209.204V70.3613H209.741L212.427 73.8525L214.307 77.0752L216.455 82.4463L217.798 87.0117L218.604 91.5771L219.141 99.6338V102.856L218.335 103.662L211.89 106.616L205.981 109.839L202.759 111.987L197.656 115.747L194.971 118.164L192.822 120.044L190.942 121.924L188.525 124.878L185.571 128.638L182.349 134.277L179.932 139.917L178.589 144.482L178.052 147.974V155.493L178.857 159.79L180.469 164.087L182.886 168.384L185.034 171.069L187.988 174.023L191.479 176.709L195.776 179.126L200.342 181.274L205.444 182.617H211.353L218.335 181.812L221.289 180.737L222.363 179.663L222.9 181.006L224.243 185.571L226.123 189.062L228.271 192.017L230.957 194.971L234.717 197.925L239.014 200.61L243.579 202.759L248.145 204.102L250.024 204.37H254.321L259.961 203.564L261.304 204.37L263.184 205.981V206.519L264.258 207.056L266.406 209.204L268.555 211.084L272.583 215.112L273.12 215.381V215.918H273.657V216.455H274.194V216.992H274.731V217.529L275.806 218.066L276.074 218.872L277.148 219.409V219.946L278.223 220.483L280.371 222.632L280.908 222.9V223.438H281.445V223.975L282.52 224.512L284.399 226.392V226.929L285.474 227.466L287.622 229.614L289.233 230.957L293.53 235.254L295.142 236.597V237.134L296.216 237.671L298.633 240.088L300.244 241.431L306.421 247.607L307.495 248.413V248.95L308.569 249.487L310.449 251.367L311.255 251.904V252.441L312.329 252.979L316.626 257.275L318.237 258.618L319.312 259.692V260.229L320.386 260.767L323.877 264.258L324.414 264.526V265.063L325.22 265.332V265.869L326.294 266.406L330.054 270.166L332.739 272.583L339.453 279.297L341.064 281.445L341.87 283.862V287.622L339.722 294.067L337.036 299.976L334.082 305.884L332.471 308.569L330.591 311.523L328.711 314.209L326.294 317.432L323.34 321.191L318.506 326.025L316.357 327.905H315.82V328.442L313.672 330.054H312.866V330.591L308.838 333.008L304.81 335.156L298.364 338.11L297.29 338.379H294.873L293.262 337.305L291.382 336.499L288.696 334.351L286.816 332.739V332.202L285.742 331.665V331.128L284.668 330.591L278.223 324.146L276.074 322.266L267.212 313.403L265.063 311.523L257.275 303.735L255.127 301.855L240.356 287.085L238.208 285.205L224.78 271.777L222.632 269.897L210.815 258.081L208.667 256.201L180.737 228.271L178.589 226.392L163.818 211.621L161.67 209.741L156.03 204.102L153.882 202.222L145.02 193.359L140.723 189.331L137.5 186.108L136.694 185.571V185.034L135.62 184.497V183.96L134.546 183.423V182.886L133.472 182.349L121.924 170.801L119.775 168.921L114.404 163.55L113.867 163.281V162.744L113.062 162.476V161.938L111.987 161.401L97.7539 147.168L95.874 145.02L93.9941 143.14L93.457 142.871V142.334H92.9199V141.797H92.3828V141.26L91.3086 140.723L89.1602 138.574L86.7432 136.694L85.4004 135.352L84.3262 134.009L83.5205 133.472V132.935L82.4463 132.397L80.2979 130.249V129.712L79.2236 129.175L68.75 118.701L67.1387 117.358L65.2588 115.21L64.4531 114.673V114.136L63.3789 113.599L53.9795 104.199L52.3682 102.856L51.2939 101.782V101.245H50.7568V100.708L49.6826 100.171V99.6338L48.6084 99.0967L45.9229 96.4111V95.874L44.8486 95.3369L38.9404 89.4287V88.8916L37.8662 88.3545V87.8174H37.3291L36.2549 86.2061L35.9863 83.7891L36.5234 82.1777L38.4033 81.9092L42.4316 83.5205H45.1172L47.5342 82.7148L49.4141 81.1035L50.7568 78.418V73.0469L50.2197 69.2871L51.2939 68.2129L53.1738 68.4814L56.9336 69.5557H58.8135L61.499 68.75L63.3789 67.1387L64.4531 65.5273L64.9902 63.916V58.8135L63.916 54.5166L63.3789 53.1738L62.8418 50.2197L63.916 49.1455H67.1387L71.4355 49.4141H77.3438L80.5664 48.6084L83.252 46.9971L84.3262 46.46L84.8633 45.1172L85.9375 42.9688L86.7432 39.7461L87.5488 38.6719Z" fill="#FDFDFD"/>
<path d="M85.9375 149.316H87.5488L88.8916 150.391L99.3652 160.864L100.977 162.207L102.588 164.087L103.125 164.355V164.893L104.199 165.43L105.005 166.235V166.772L105.811 167.041L106.348 168.115L105.005 168.652L102.856 168.384H98.291L95.0684 169.189L91.8457 171.069L91.04 171.338L90.5029 172.412L89.6973 174.292L89.1602 176.978L88.623 178.589V183.423L89.6973 186.914L91.5771 191.479L93.7256 195.239L95.0684 196.851V197.388H95.6055L96.9482 198.999L100.439 201.685L104.736 203.833L111.182 205.981L114.136 206.519H118.164L121.387 205.444L124.072 203.027L126.221 199.268L127.026 196.582V192.554L126.489 188.257L127.563 188.525L133.472 194.434L135.083 195.776L136.157 196.851V197.388H136.694V197.925H137.231V198.462H137.769L148.242 208.936L149.048 209.473V210.01L150.122 210.547L152.002 212.158L151.733 213.232L149.048 215.381L145.02 219.409L142.603 223.169L141.26 226.66L140.723 229.077V236.06L141.797 241.968L143.408 246.265L145.288 249.219L147.168 251.367L149.854 253.247L152.539 254.59L156.836 255.933L159.79 256.47H166.504L172.144 255.127L180.469 252.441L184.497 251.636H190.137L192.822 252.71L196.582 255.933L209.204 268.555L211.353 270.435L220.752 279.834L222.9 281.714L237.134 295.947L239.282 297.827L249.756 308.301L251.904 310.181L270.703 328.979L271.24 329.248V329.785L272.314 330.322V330.859H272.852V331.396H273.389V331.934H273.926L275.269 333.276V333.813H275.806V334.351H276.343L277.417 335.425V335.962L278.491 336.499L279.297 337.305V337.842L280.371 338.379V338.916L281.445 339.453V339.99L282.52 340.527V341.064L283.594 341.602L286.279 344.287V344.824L287.085 345.093L288.965 347.51L290.845 348.584L293.799 349.39L295.142 350.464L294.873 352.075L292.993 354.224L290.845 356.104L287.354 359.595H286.816V360.132L284.668 362.012L281.982 364.429L279.028 366.846L275.806 369.531L272.583 371.948L268.018 375.171L263.452 378.125L257.812 381.616L254.053 383.765L248.682 386.719L242.505 389.673L234.18 393.433L227.197 396.118L219.141 398.804L208.398 401.489L202.759 402.563L193.896 403.638L190.137 403.906H177.246L171.069 403.101L161.401 401.221L154.419 399.341L147.974 396.924L142.871 394.507L136.426 390.747L131.592 387.524L128.638 385.107L125.952 382.422L123.535 378.931L122.192 375.977L121.387 372.217L120.85 366.309L120.581 360.938V333.545L121.387 313.403L122.192 292.993L122.998 267.48V257.812L122.461 248.145L121.924 235.522L120.85 232.837L118.164 229.077L115.21 225.854L112.793 223.706L108.765 220.752L99.9023 214.844L95.6055 211.89L91.8457 209.204L88.623 206.787L85.6689 204.102L84.3262 203.027V202.49L83.5205 202.222L80.5664 198.462L78.418 194.971L76.2695 190.405L74.6582 185.034L73.3154 178.052V169.727L74.3896 163.55L76.001 159.253L78.1494 155.762L80.5664 153.076L82.4463 151.465L85.1318 149.585L85.9375 149.316Z" fill="#FDFDFD"/>
<path d="M223.706 111.45H229.614L232.568 112.256L236.328 114.136L239.551 116.553L242.236 118.97L245.19 121.924L248.145 126.221L250.562 129.98L252.441 131.592L254.053 132.129L262.646 132.666L269.092 133.74L273.926 135.352L277.954 137.769L280.371 139.648L283.594 142.871L286.011 146.094L288.159 149.854L289.771 153.076L291.382 157.373L292.456 162.744L292.725 164.893V176.709L291.65 187.451L289.233 205.713L288.159 215.649L287.622 216.992L286.548 216.455V215.918L285.474 215.381L283.057 212.964L282.251 212.427V211.89L281.177 211.353L277.148 207.324L276.074 206.519V205.981L275 205.444V204.907L273.926 204.37L272.046 202.49L270.703 201.416L270.166 200.61L270.435 199.268L273.389 197.388L274.463 196.045L274.731 193.628L273.12 191.211L272.046 190.674H269.092L262.378 193.359L257.544 195.239L254.321 196.045H250.562L246.533 194.971L241.968 192.822L238.745 190.674L236.06 188.257L233.911 186.108L232.031 182.886L230.688 179.126L230.151 176.44L230.42 172.144L231.494 167.578L233.374 162.207L235.522 157.91L238.208 153.613L241.162 150.391L243.311 148.511L244.653 147.168L245.19 146.362V144.482L244.116 142.603L242.505 141.797H239.819L237.671 142.871L234.985 145.288L232.568 148.242L230.151 151.733L228.003 155.493L225.586 160.596L223.975 165.43L223.169 168.652L222.363 175.098L219.946 173.486H217.798L213.232 174.023H206.25L203.027 173.218L198.462 171.069L194.434 168.384L190.137 164.087L187.988 160.327L186.646 156.299L186.108 153.613V148.511L186.914 144.751L188.525 140.454L190.674 136.157L192.285 133.472L194.434 130.518L197.656 126.758L200.61 123.804L203.564 121.387L207.593 118.433L211.353 116.016L217.261 112.793L220.215 111.719L223.706 111.45Z" fill="#FDFDFD"/>
<path d="M349.658 291.382L351.001 291.65L353.418 293.799V294.336L354.224 294.604L355.566 296.216L357.178 297.559L359.058 299.707L370.605 311.255L372.217 312.598V313.135L373.291 313.672L376.514 316.895L378.394 318.506L379.468 319.849L381.616 321.729L385.645 325.757L386.987 326.831L388.867 328.979L391.016 331.128L392.627 333.276L393.164 335.156L392.896 338.11L392.09 341.333L390.479 345.63L388.062 349.927L386.182 352.881L384.57 355.298L381.348 359.863L380.005 361.206L376.782 364.966L374.634 367.383L373.291 368.726H372.754L372.485 369.531L370.337 371.411H369.8L369.531 372.217L367.92 373.291L366.577 374.634L365.234 375.708H364.697V376.245L359.863 379.736L356.909 381.616L353.687 383.765H352.881L352.612 384.57L349.658 386.182L347.778 387.524L345.093 387.793L343.75 386.987L338.11 381.348V380.811L337.036 380.273L333.008 376.245V375.708L332.202 375.439L317.432 360.669V360.132L316.357 359.595L312.061 355.029L307.227 350.195L304.81 348.047L304.272 346.704L304.541 345.361L306.421 344.287L308.838 344.019L309.375 344.287L309.644 343.213L311.255 341.87L313.135 340.796L318.774 337.036L322.266 334.351L323.071 334.082V333.545L325.22 331.665L328.442 328.442L330.859 325.488L333.813 321.997L335.693 319.312L338.379 315.015L340.796 310.718L343.213 305.615L345.361 301.318L347.51 295.947L349.121 291.65L349.658 291.382Z" fill="#FDFDFD"/>
<path d="M41.626 19.3359H44.043L49.4141 20.6787L53.1738 21.4844L61.2305 23.3643L69.5557 25.2441L74.3896 26.5869L76.8066 27.3926L77.6123 27.9297L78.1494 30.3467L78.418 32.7637V38.9404L77.8809 40.2832L77.3438 40.8203L76.2695 41.0889H71.7041L61.499 40.0146H56.3965L53.9795 40.8203L52.0996 43.2373V46.7285L54.7852 54.5166L55.3223 55.5908L55.5908 57.4707L55.0537 58.8135L52.9053 58.5449L45.3857 55.3223L43.7744 54.7852H41.3574L39.4775 55.5908L38.6719 56.3965L37.8662 58.0078V59.8877L41.0889 69.5557V71.7041L39.4775 71.9727L37.0605 70.8984L33.8379 69.2871L32.4951 68.75H30.0781L27.6611 69.8242L26.5869 70.8984H24.9756L23.6328 67.9443L21.4844 60.4248L20.1416 55.8594L18.5303 48.877L18.2617 46.46L19.0674 44.3115H19.6045L20.1416 43.2373L23.3643 40.2832L25.2441 38.4033L26.3184 37.0605H26.8555V36.5234H27.3926L27.9297 35.4492L30.3467 33.0322L32.2266 30.3467H32.7637L33.3008 29.2725L35.9863 25.7812L37.8662 23.3643H38.4033L38.9404 22.29L41.626 19.3359Z" fill="#FDFDFD"/>
<path d="M86.7432 36.5234L88.623 37.0605L89.9658 38.1348V38.6719H90.5029V39.209L91.5771 39.7461L92.9199 40.8203V41.3574L93.7256 41.626V42.1631H94.5312L95.874 43.7744L96.9482 44.8486L97.7539 45.1172L98.8281 46.7285L100.708 48.3398V48.877L101.782 49.1455L102.856 50.2197V50.7568L103.662 51.0254L104.736 52.0996V52.6367L105.811 53.1738V53.7109L106.616 53.9795L107.959 55.5908L109.839 57.2021V57.7393L110.913 58.2764V58.8135L111.987 59.3506L112.793 60.1562V60.6934L113.867 60.9619L114.941 62.0361V62.5732H115.479V63.1104L116.553 63.3789L117.896 64.9902L118.433 65.2588V65.7959L119.507 66.333L121.655 68.2129L122.729 69.2871V69.8242L123.804 70.3613L125.684 72.2412V72.7783H126.489L128.101 74.6582L128.906 75.1953V75.7324L129.712 76.001L130.786 77.0752V77.6123L131.86 78.1494V78.6865L132.935 79.2236V79.7607L134.009 80.2979V80.835L135.083 81.3721L135.889 82.1777V82.7148L136.963 83.252V83.7891L137.769 84.0576V84.5947L138.843 85.1318L140.991 87.2803L142.603 88.623V89.1602H143.14V89.6973L144.214 90.2344L146.362 92.1143L146.631 93.1885H147.437L149.316 95.3369L150.122 96.1426V96.6797H150.659V97.2168L151.733 97.7539L154.688 100.708V101.245H155.225V101.782H155.762V102.319H156.299L157.642 103.931V104.468H158.179L160.059 106.885L166.235 113.062H165.43L152.002 99.6338L149.854 97.7539L144.751 92.6514L143.14 91.3086V90.7715L142.065 90.2344L139.917 88.0859L138.037 86.4746V85.9375L136.963 85.4004L129.98 78.418L129.175 77.8809V77.3438L128.101 76.8066V76.2695L127.026 75.7324L124.072 72.7783L122.192 71.167V70.6299L121.118 70.0928L118.97 67.9443L116.821 66.0645L114.941 64.1846L112.793 62.3047L107.69 57.2021L106.079 55.8594V55.3223L105.005 54.7852V54.248L103.931 53.7109L102.051 51.8311V51.2939L100.977 50.7568L99.3652 49.4141L98.0225 47.8027L95.874 45.9229L92.9199 42.9688L90.7715 41.0889L88.0859 38.9404L87.2803 39.209L86.4746 41.626L85.6689 44.3115L84.3262 46.46L81.6406 48.3398L78.6865 49.4141L77.3438 49.6826H70.6299L67.1387 49.4141H63.916L63.1104 50.2197L63.6475 53.7109L64.4531 55.5908L65.2588 58.8135V63.916L64.1846 66.333L62.3047 68.4814L59.8877 69.5557L58.8135 69.8242H56.9336L52.3682 68.4814L50.7568 68.75L50.4883 70.0928L51.0254 73.584V78.418L49.6826 81.1035L47.5342 82.9834L45.1172 83.7891H42.4316L38.9404 82.4463L37.3291 82.1777H36.5234L36.2549 84.8633L36.792 86.7432L37.3291 87.8174H37.8662L39.7461 89.9658L49.1455 99.3652L50.7568 100.708V101.245H51.2939V101.782L52.3682 102.319V102.856L53.4424 103.394V103.931L54.5166 104.468L57.2021 107.153V107.69L58.2764 108.228L63.916 113.867L64.4531 114.136V114.673L65.5273 115.21L66.333 116.016V116.553L67.1387 116.821L68.2129 117.896V118.433L69.2871 118.97L82.9834 132.666L84.8633 134.277L86.2061 135.62L86.7432 136.694L87.8174 137.231L91.3086 140.454L92.3828 141.26V141.797H92.9199V142.334H93.457V142.871L94.5312 143.408L97.7539 146.631L99.6338 148.779L112.524 161.67L113.867 162.744V163.281L114.941 163.818L121.387 170.264L123.535 172.144L134.009 182.617L135.62 183.96L136.963 185.571L139.111 187.451L143.14 191.479L145.288 193.359L145.825 194.434L146.899 194.971L154.688 202.759L155.493 203.296V203.833L156.567 204.37L160.327 208.13H159.521L157.642 206.519V205.981L156.567 205.444L155.493 204.639V204.102L154.419 203.564L149.048 198.193L146.899 196.313L134.546 183.96L132.935 182.617L131.86 181.543V181.006L130.786 180.469V179.932L129.712 179.395L126.221 175.903L125.684 175.635V175.098H125.146L123.535 173.218L122.729 172.681V172.144L121.655 171.606L119.507 169.458L117.358 167.578L112.793 163.281L111.182 161.938L109.57 160.059L107.69 158.447V157.91L106.885 157.642L105.811 156.299L104.736 155.493V154.956L103.662 154.419L102.588 153.345V152.808L101.782 152.539L100.708 151.465V150.928L99.6338 150.391L97.2168 147.974L94.7998 145.02L93.1885 143.677L91.8457 142.334V141.797L90.7715 141.26L89.6973 140.454V139.917L88.623 139.38L86.2061 137.231L84.8633 135.889L81.9092 133.203L80.5664 131.86L78.9551 130.518L77.8809 129.443V128.906H77.0752V128.101L76.001 127.832L74.3896 125.952V125.415H73.8525V124.878L73.0469 124.609V124.072H72.5098V123.535H71.9727V122.998L70.8984 122.461L69.8242 121.387V120.85H69.0186L67.6758 119.507L66.333 117.896L64.9902 116.821L63.6475 115.21L61.499 113.33L60.4248 111.987L57.7393 109.839V109.033L56.665 108.496L55.8594 107.959V107.153L54.7852 106.616L53.4424 105.542L52.3682 104.199L50.4883 102.588L47.2656 99.3652L45.9229 98.291L45.1172 97.2168L44.3115 96.9482L42.4316 94.7998L42.1631 93.9941L41.0889 93.457L40.0146 92.3828V91.8457L38.9404 91.3086L37.8662 89.9658L36.5234 88.623L35.1807 87.0117L34.6436 85.1318L34.9121 81.1035L35.9863 80.0293L38.4033 80.2979L40.8203 81.6406L42.7002 82.1777H45.9229L47.8027 81.1035L48.6084 80.835L49.1455 79.4922L49.6826 77.8809V73.584L48.877 70.3613V67.6758L49.9512 66.6016L52.6367 67.1387L56.1279 68.2129H59.8877L61.499 67.4072L62.8418 66.0645L63.6475 64.7217L63.916 61.499V59.3506L62.8418 54.7852L62.0361 52.9053L61.2305 49.4141L61.7676 48.3398L62.5732 48.0713H68.4814L75.7324 48.3398L80.0293 47.5342L81.3721 46.7285L82.7148 45.3857L83.5205 44.043L84.0576 42.7002L84.8633 39.4775L85.9375 37.3291L86.7432 36.5234Z" fill="#FAD6E1"/>
<path d="M349.39 289.771L351.538 290.308L353.418 291.919L354.761 293.262V293.799L355.835 294.336V294.873H356.641V295.679L357.715 296.216V296.753L358.789 297.29V297.827L359.595 298.096L360.669 299.17V299.707L361.743 299.976V300.781H362.549L362.817 301.855H363.623L363.892 302.661L364.697 303.198V303.735L365.771 304.272L367.114 305.884L368.726 307.227V307.764L369.8 308.301V308.838L370.874 309.375L371.68 310.181V310.718L372.754 310.986V311.792H373.56L374.902 313.135V313.672L375.708 313.94L377.051 315.552L378.931 317.163V317.7L380.005 318.237L381.616 319.58L382.959 321.191L383.765 321.729V322.266H384.57L386.182 324.146L387.793 325.488V326.294H388.599L390.479 328.442L391.821 329.785L392.896 331.128L393.97 333.008L394.507 334.888L394.238 338.11L392.896 343.75L390.747 348.047L389.136 351.001L387.793 352.881L386.719 355.029L384.839 357.715L383.765 359.058L381.885 361.475L381.348 362.28H380.811L380.273 363.354L378.125 365.771L376.782 366.846L374.902 368.994L373.291 370.337L373.022 370.874H372.485V371.411L370.337 373.291L367.114 375.977L363.892 378.394L358.521 382.153L354.224 384.839L351.001 386.987L348.047 388.599L346.973 388.867L346.704 389.404L344.556 388.599H343.213L342.676 387.256L339.99 385.107V384.57L338.916 384.033L338.647 383.228L337.842 382.959V382.422H337.305L335.425 380.273L334.351 379.468V378.931H333.813L331.934 376.782L328.979 373.828L328.442 373.56V373.022L327.637 372.754L326.562 371.68V371.143L325.488 370.605L324.414 369.531V368.994L323.34 368.457L321.46 366.309L319.58 364.697V363.892L318.506 363.354L312.061 356.909L310.181 354.761L309.912 353.955L308.838 353.418L304.272 348.853L303.735 348.584V348.047H302.93L302.393 346.167L303.198 344.824L306.689 343.213L309.106 342.407V341.87L311.792 340.259L314.746 338.647L315.82 337.842H316.626L316.895 337.036H317.7V336.499L319.312 335.425H319.849V334.888L321.729 333.813L324.951 330.859H325.488L326.025 329.785L329.248 326.294L331.665 323.34L333.545 320.654L333.813 320.117H334.351L334.888 318.774L335.962 317.163H336.499L337.036 315.552L339.185 311.792L341.602 306.689L341.87 305.615H342.407L342.944 303.467H343.481L344.287 300.781L345.63 297.29L346.973 292.725L347.778 291.113L349.39 289.771ZM349.658 291.382L349.121 291.65L346.167 299.17L344.287 303.467L342.139 308.032L339.722 312.598L337.573 316.357L335.156 320.117L333.008 322.803L329.517 327.1L326.294 330.591L323.608 333.276L323.071 333.545V334.082L321.997 334.619L317.7 337.842L313.135 340.796L310.718 342.407L309.375 343.75V344.287L308.838 344.019L306.421 344.287L304.541 345.361L304.272 347.241L305.884 349.121L307.764 350.732L314.478 357.446L316.357 359.595L317.432 360.132L317.969 361.206L332.471 375.708H333.008L333.545 376.782L337.573 380.811H338.11L338.647 381.885L342.944 386.182L345.093 387.793L347.778 387.524L349.927 385.913L352.881 384.302V383.765L353.955 383.496L357.715 381.079L360.669 379.199L364.697 376.245V375.708L365.771 375.171L367.651 373.828L368.994 372.485L369.8 371.948V371.411L370.874 370.874L372.754 369.263V368.726L373.828 368.188L375.708 366.04L377.588 364.16L380.005 361.206L382.153 358.789L385.376 354.224L388.599 348.853L389.941 346.436L391.016 344.019L392.627 339.722L393.164 336.768L392.896 334.082L392.09 332.471L388.867 328.979L387.524 327.637L386.182 326.025L384.033 324.146L381.079 321.191L379.468 319.849L378.125 318.237L375.977 316.357L372.754 313.135H372.217V312.598L370.068 310.718L358.252 298.901L356.909 297.29L355.298 295.947L353.955 294.336H353.418L352.881 293.262L350.464 291.382H349.658Z" fill="#FBD7E2"/>
<path d="M41.8945 17.9932L44.5801 18.2617L48.6084 19.0674L52.9053 19.873L57.2021 20.9473L64.4531 22.5586L69.8242 23.9014L74.6582 25.2441L77.3438 26.5869L78.6865 27.9297L79.4922 30.6152L79.7607 33.0322V39.7461L78.9551 41.0889H78.418V41.626L76.2695 42.1631H71.4355L62.0361 41.0889H57.2021L55.0537 41.3574V41.8945L53.7109 42.9688L53.4424 43.5059V46.7285L54.248 49.4141L56.3965 55.0537L56.9336 57.2021V59.6191L56.3965 60.1562L55.0537 60.4248L51.2939 59.082L46.9971 57.2021L43.5059 55.8594H41.626L40.0146 56.665L39.209 58.2764V60.4248L40.2832 63.916L41.626 67.6758L42.7002 71.167V73.584L40.8203 74.1211L38.4033 73.0469L33.8379 70.6299L32.4951 70.0928L29.2725 70.3613V70.8984H28.4668V71.4355H27.9297L27.3926 73.0469L26.0498 74.3896L24.707 73.8525L23.9014 72.5098V71.7041L23.3643 71.4355L21.7529 66.333L20.9473 63.1104L20.4102 61.2305L19.0674 56.9336L18.5303 55.0537L17.4561 50.4883L16.6504 46.46L17.4561 44.5801L18.5303 42.9688L20.6787 41.0889L21.7529 40.5518L22.29 39.4775H22.8271V38.9404H23.3643L23.9014 37.8662L25.2441 36.5234L26.3184 35.1807L27.6611 33.8379L29.0039 32.2266H29.541V31.6895H30.0781L30.6152 30.3467L32.2266 28.4668L33.0322 26.8555L33.8379 26.0498L36.2549 23.0957L37.5977 21.7529L39.209 19.3359L41.0889 18.2617L41.8945 17.9932ZM41.626 19.3359L38.4033 22.8271V23.3643L37.3291 23.9014L34.1064 28.1982L32.7637 29.8096V30.3467H32.2266L29.8096 33.5693L27.3926 35.9863V36.5234H26.8555V37.0605L25.7812 37.5977L23.3643 40.2832L21.4844 41.8945L20.1416 43.2373L19.6045 44.3115H19.0674L18.2617 46.46L18.5303 48.877L20.1416 55.8594L21.4844 60.4248L23.9014 68.75L24.9756 70.8984H26.5869L27.9297 69.5557L30.0781 68.75H32.4951L35.9863 70.3613L38.6719 71.7041L40.5518 71.9727L41.0889 71.7041V69.5557L37.8662 59.8877V58.0078L38.9404 55.8594L40.2832 55.0537L41.3574 54.7852H43.7744L49.1455 56.9336L52.9053 58.5449L55.0537 58.8135L55.5908 57.2021L55.0537 55.0537L53.7109 51.5625L52.0996 46.7285V43.2373L53.9795 40.8203L56.3965 40.0146H61.499L71.7041 41.0889H76.2695L77.6123 40.5518L78.1494 40.0146L78.418 38.9404V32.7637L77.8809 28.7354L77.6123 27.9297L76.2695 27.124L72.5098 26.0498L63.916 23.9014L54.248 21.7529L51.2939 20.9473L45.9229 19.873L44.043 19.3359H41.626Z" fill="#FBD7E2"/>
<path d="M245.19 203.296L247.876 203.564L249.219 203.833H255.664L258.35 203.296H261.035L261.841 203.564V204.102L263.184 204.639L263.452 205.444L264.526 205.981L265.869 207.056V207.593L266.943 208.13V208.667L268.018 209.204L269.36 210.278V210.815L270.435 211.353L270.972 212.427L272.046 212.964L273.389 214.038L275 215.918L276.611 217.261L277.954 218.872L279.028 219.678V220.215H279.565V220.752L280.371 221.021L281.714 222.363L284.937 225.317L285.474 225.586V226.123L286.548 226.66L287.891 228.003V228.54L288.965 229.077L290.576 230.42L291.919 232.031L292.725 232.837L293.53 233.105L294.873 234.717L296.753 236.328V236.865L297.827 237.402L299.707 239.014V239.819L300.781 240.356L302.661 241.968L304.004 243.579L305.884 245.19V245.728L306.958 246.265L308.838 247.876L310.449 249.756L311.255 250.024L312.598 251.367L312.866 252.173H313.672L313.94 252.979L315.552 254.053L316.895 255.664L318.774 257.275L319.849 258.35V258.887L320.654 259.155L320.923 259.692L321.729 259.961L322.803 261.035V261.572L323.877 262.109V262.646L324.683 262.915L326.025 264.526L327.905 266.138V266.675L328.979 267.212L330.591 268.555V269.092L331.665 269.629L333.545 271.24L334.619 272.314V272.852L335.693 273.389L336.23 273.926L336.768 275L337.842 275.537L338.916 276.611V277.148L339.722 277.417L340.796 278.76L342.407 281.177L343.213 284.399L342.944 288.159L342.407 290.308L341.333 293.262L340.527 294.604L339.722 296.753L337.573 300.781L335.425 305.078L333.008 309.644L330.322 313.672L328.174 316.626L325.22 320.117L323.877 321.997H323.34L322.803 323.071L319.043 326.831L316.089 329.248L312.866 331.665L308.838 334.082L300.781 338.11L297.827 339.185H294.873L290.845 337.036L287.891 334.619L284.399 331.128L282.788 329.785L280.908 327.637L279.565 326.562V326.025L278.491 325.488V324.951L277.417 324.414L266.406 313.403L266.675 312.866L268.823 314.746L276.611 322.534L277.686 323.34V323.877L278.76 324.414L285.205 330.859L286.816 332.202V332.739L287.891 333.276V333.813L288.965 334.351L291.382 336.23L294.604 337.842L294.873 338.11H297.29L300.781 336.768L305.884 334.351L310.718 331.665L312.329 330.591H312.866V330.054L314.746 328.979L315.82 328.442V327.905L318.237 326.025L319.043 325.22H319.58L320.117 324.146L323.608 320.654L326.294 317.163L329.517 312.866L330.591 310.986L332.202 308.569L334.888 303.735L336.23 301.05L339.453 294.067L341.602 287.622V283.862L340.527 280.908L336.768 276.88L330.859 270.972L329.248 269.629V269.092L328.174 268.555L325.757 266.138L324.414 265.063V264.526L323.34 263.989L319.849 260.498L318.237 259.155L317.163 258.081V257.544L316.089 257.007L311.792 252.71L307.495 248.95L301.05 242.505L300.244 241.968V241.431L299.17 240.894V240.356L298.096 239.819L295.679 237.402L294.067 236.06V235.522L292.993 234.985L290.039 232.031L289.233 231.494V230.957L288.159 230.42V229.883L287.085 229.346L283.594 225.854L281.445 223.975V223.438H280.908V222.9L279.834 222.363L277.686 220.215L276.074 218.872L274.731 217.529V216.992H274.194V216.455H273.657V215.918H273.12V215.381L272.046 214.844L268.018 210.815L266.943 210.01V209.473L265.869 208.936L263.721 206.787L263.184 206.519V205.981L262.109 205.444L260.767 204.102L259.424 203.833L254.321 204.639H250.024L245.996 203.833L245.19 203.296Z" fill="#FBD7E2"/>
<path d="M172.144 54.5166L177.783 54.7852L182.617 55.5908L182.886 55.8594L185.571 56.3965L189.062 57.4707L190.674 58.0078L192.554 58.5449L197.388 60.9619L198.73 61.499L200.61 62.5732V63.1104L201.685 63.3789L204.639 65.5273L207.324 67.4072V67.9443L208.398 68.4814L210.547 70.6299L211.89 72.5098L211.621 73.0469L209.741 70.8984V70.3613H209.204V69.8242H208.667V69.2871L207.593 68.75L204.907 66.6016L200.879 63.916L197.119 61.7676L191.748 59.3506L186.108 57.4707L180.469 56.1279L177.246 55.5908H171.069L166.772 56.3965L161.938 58.0078L156.299 60.6934L152.808 63.1104L147.168 68.75L146.899 69.2871H146.362L145.825 70.3613L143.677 73.3154L142.065 76.2695V77.8809L144.751 80.5664L145.557 81.1035V81.6406L146.631 82.1777L149.048 84.3262L149.854 85.1318V85.6689L150.928 86.2061L153.613 88.8916L154.15 89.1602V89.6973L155.225 90.2344L157.91 92.9199L158.716 93.457V93.9941L159.79 94.5312L160.864 95.6055L161.938 95.3369L164.893 92.3828L168.652 89.6973L171.875 87.8174L172.949 87.5488H177.515L179.663 88.3545L182.08 90.2344L182.886 91.04L182.617 91.5771L180.2 89.4287L177.783 88.3545L174.561 88.0859L172.144 88.623L168.652 90.5029L164.355 93.7256L163.013 95.3369H162.476L161.938 96.4111L160.596 96.6797L158.716 95.3369V94.7998L157.642 94.2627L156.03 92.9199L151.465 88.3545L149.316 86.4746L147.705 85.1318L146.899 84.5947V84.0576L145.825 83.5205L143.677 81.6406V81.1035L142.603 80.5664V80.0293L141.528 79.4922V78.9551H140.991V76.5381L142.603 73.3154L143.14 71.9727H143.677L143.945 70.6299L145.02 69.2871H145.557L146.094 68.2129H146.631L147.168 67.1387L149.048 64.9902L150.391 63.6475L152.808 61.499L154.688 60.4248L157.91 58.2764L161.133 56.9336L163.818 55.8594L169.189 54.7852L172.144 54.5166Z" fill="#FBD7E2"/>
<path d="M86.4746 148.511L88.3545 148.779L90.7715 150.391L92.6514 152.002V152.808H93.457L95.3369 154.956L97.4854 156.836L99.3652 158.984L101.782 161.401V161.938L102.856 162.476V163.013L103.662 163.281L104.736 164.624L105.542 165.161V165.698H106.079L107.422 167.041L109.033 168.921L108.765 169.727L106.079 169.458L103.394 168.921L100.171 168.652L95.874 169.458L93.1885 170.801L92.1143 171.606H91.5771V172.144H91.04L90.5029 173.218L88.8916 179.126V184.497L88.3545 183.423V178.589L89.1602 176.172L89.6973 173.755L90.5029 172.144L91.8457 170.801L93.9941 169.458L96.9482 168.384L98.291 168.115H102.856L105.542 168.384L106.079 167.847L103.662 165.161L103.125 164.893V164.355L102.051 163.818V163.281L100.977 162.744V162.207L99.9023 161.67V161.133L98.8281 160.596L88.623 150.391L87.5488 149.585L85.1318 149.854L81.1035 152.808L78.9551 154.956L76.5381 158.716L75.1953 161.938L74.1211 166.235L73.584 169.727V178.052L74.9268 185.034L76.5381 190.405L78.9551 195.508L80.835 198.462L82.9834 201.147L85.1318 203.564L87.2803 205.444L89.9658 207.593L93.9941 210.547L99.0967 214.038L106.348 218.872L110.645 221.826L114.941 225.317L117.627 228.003L117.358 228.54L114.404 225.586L110.913 222.9L107.69 220.483L105.811 219.409L95.3369 212.427L90.5029 208.936L89.6973 208.398V207.861L88.623 207.593V207.056L87.5488 206.519L85.9375 205.444L84.5947 203.833L83.252 202.49L80.2979 198.999L78.1494 195.508L76.2695 191.748L74.9268 187.451L73.3154 180.737L72.7783 176.44V169.995L73.3154 165.967L74.3896 161.67L76.8066 156.567L78.9551 153.613L81.1035 151.733L83.7891 149.854L86.4746 148.511Z" fill="#FBD7E2"/>
<path d="M261.841 320.117L262.915 320.654L266.675 324.146L267.212 324.414V324.951L268.286 325.488V326.025L269.36 326.562L271.24 328.174L277.417 334.351L278.223 334.888V335.425L279.297 335.962L282.788 339.453L283.325 339.722V340.259H283.862V340.796L284.937 341.333L285.742 342.139V342.676L286.816 343.213V343.75L287.891 344.287L288.965 345.63L289.771 346.167V346.704L293.799 348.315L295.679 349.658L295.947 351.538L293.262 354.492L291.382 356.641L288.159 359.595L285.205 362.28L283.057 364.16L281.982 364.697V365.234L278.223 368.188L274.731 371.143L269.897 374.634L265.869 377.319L261.841 379.736L257.544 382.422L251.099 385.913L246.533 388.33L241.699 390.479L240.894 390.21L249.487 385.913L254.59 383.228L260.498 379.736L266.406 375.977L270.703 373.022L275 369.8L277.686 367.651L281.445 364.429L283.057 363.086H283.594L283.862 362.28L286.011 360.4L286.816 360.132V359.595L288.965 357.715L292.456 354.224H292.993L293.53 353.149L294.873 351.538L294.604 350.195L293.262 349.39L290.039 348.584L288.696 347.51L286.816 345.093L283.057 341.333L281.445 339.99L279.834 338.11L278.491 336.768L277.417 335.962V335.425L276.343 334.888V334.351H275.806V333.813H275.269V333.276L274.194 332.739L273.926 331.934H273.389V331.396H272.852V330.859H272.314L271.24 329.785V329.248L270.166 328.711L261.841 320.386V320.117Z" fill="#FBD7E2"/>
<path d="M121.118 233.374L121.924 234.448L122.192 235.522L122.998 252.979L123.267 257.812V267.48L122.192 301.318L121.118 325.488L120.85 333.545V360.938L121.387 369.531L121.924 374.097L122.192 375.977L121.655 375.439L121.118 372.754L120.581 368.457L120.044 358.252V338.916L120.581 320.386L121.118 312.866L121.655 297.29L122.192 279.028L122.461 263.452V257.544L121.924 245.459L121.655 236.865L121.118 233.374Z" fill="#FBD7E2"/>
<path d="M269.897 199.268L270.435 199.536L270.703 200.879L274.463 204.639L276.074 205.981L281.714 211.621L283.862 213.501L287.085 216.724H287.622L288.159 213.501L289.233 203.296L289.771 199.805H290.039L289.771 204.37L288.696 215.649L288.428 217.798L287.085 218.066L285.474 216.992L283.862 215.112L283.057 214.575V214.038H282.251L280.371 211.89L279.028 210.815L278.223 210.01V209.473L277.148 208.936L275.269 207.324L274.463 206.519V205.981H273.657L272.583 204.639V204.102L271.509 203.564L270.435 202.759V202.222H269.897L269.092 200.61L269.36 199.536L269.897 199.268Z" fill="#FBD7E2"/>
<path d="M125.415 186.108L126.758 186.377L127.026 187.451L128.101 187.988L129.98 189.868L130.786 190.405V190.942L131.86 191.479L133.74 193.091V193.628L134.814 194.165L137.769 197.119V197.656H138.306V198.193H138.843V198.73L139.917 199.268L141.797 201.416L143.945 203.564V204.102L145.02 204.639L146.094 205.713V206.25L147.168 206.787V207.324L147.974 207.593V208.13L149.048 208.667L150.391 210.278L150.122 210.815L146.899 207.861L138.574 199.536L137.769 198.999V198.462H137.231V197.925H136.694V197.388H136.157V196.851L135.083 196.313V195.776L134.009 195.239V194.702L132.935 194.165L127.295 188.525L126.489 188.257L127.295 192.554V196.582L126.758 197.656V193.896L126.221 189.868L125.415 187.183V186.108Z" fill="#FBD7E2"/>
<path d="M246.802 124.072L248.145 125.415L250.024 128.101L251.099 129.712L251.904 129.98V130.518L253.516 131.055L256.201 131.592L264.258 132.129L270.435 133.472L273.926 134.814L277.148 136.426L280.64 139.38L281.982 140.454L284.399 143.408L285.474 144.751L285.205 145.288L282.251 141.797L279.565 139.111L275.269 136.426L273.12 135.352L269.092 134.009L262.646 132.935L254.053 132.397L252.173 131.592L250.024 129.712L246.802 124.609V124.072Z" fill="#FBD7E2"/>
<path d="M342.676 270.166L346.704 272.314L348.047 273.657L349.658 275.806L350.464 277.148L350.195 277.954L347.778 276.88L345.898 275.537V275L344.824 274.731L343.481 273.12L342.944 271.509L342.676 270.166Z" fill="#FBD7E2"/>
<path d="M122.461 376.782L123.267 377.856L124.878 380.542L127.026 383.228L129.443 385.645L133.472 388.599L139.111 392.09L145.557 395.581L148.511 396.924L147.705 397.192L143.408 395.312L139.111 392.896L136.157 391.284L132.129 388.599L129.175 386.182L126.489 383.765V383.228H125.952V382.69H125.415L122.998 378.662L122.461 377.588V376.782Z" fill="#FBD7E2"/>
<path d="M92.3828 192.822L93.1885 193.628L95.0684 196.045L96.1426 197.388L96.6797 197.656V198.193L97.7539 198.73L100.171 200.879L106.079 203.833L109.033 204.907L112.524 205.981L119.238 206.25L118.164 206.787H114.136L110.107 205.981L104.199 203.833L100.439 201.953L97.7539 199.805L95.6055 197.925V197.388H95.0684L92.6514 193.896L92.3828 192.822Z" fill="#FBD7E2"/>
<path d="M58.8135 120.581L59.6191 120.85V121.387L60.6934 121.924L65.5273 126.758L67.6758 128.638L69.5557 130.518L70.3613 131.055V131.592H70.8984V132.129H71.4355L73.3154 134.277L75.4639 136.426L77.3438 138.037L78.418 139.111V139.648H78.9551L80.2979 141.26L80.0293 141.797L78.1494 139.917L77.6123 139.648V139.111L76.5381 138.574L75.1953 137.231V136.694L74.1211 136.157V135.62L73.0469 135.083L70.0928 132.129V131.592L69.0186 131.055L60.9619 122.998L59.082 121.387L58.8135 120.581Z" fill="#FBD7E2"/>
<path d="M118.164 55.5908L119.238 56.1279L122.729 59.6191L123.267 59.8877V60.4248L124.341 60.9619L128.638 65.2588L129.443 65.7959V66.333L130.518 66.8701V67.4072L131.592 67.9443L133.74 70.0928L133.472 70.6299L129.712 67.4072L128.101 66.0645L126.221 63.916L124.609 62.5732V62.0361L123.804 61.7676L121.924 59.6191L119.775 57.7393L118.433 56.3965L118.164 55.5908Z" fill="#FBD7E2"/>
<path d="M176.44 123.267L177.515 123.804L181.274 127.563H182.08L181.543 128.906L180.737 129.712H180.2V127.295L176.44 123.535V123.267Z" fill="#FBD7E2"/>
<path d="M237.939 142.334L238.477 142.603L232.031 149.048L232.568 147.974L234.985 145.02L236.865 143.14L237.939 142.334Z" fill="#F8D0DC"/>
<path d="M345.63 271.777L346.973 272.583L348.315 273.926L349.39 275.269L349.121 275.806L345.63 272.314V271.777Z" fill="#FDFDFD"/>
<path d="M112.256 329.248L112.793 330.054L112.524 333.276L111.987 333.813V330.054L112.256 329.248Z" fill="#FBD7E2"/>
</svg>
