<svg width="346" height="473" viewBox="0 0 346 473" fill="none" xmlns="http://www.w3.org/2000/svg">
<path d="M307.764 0L309.644 0.537109L314.746 3.22266L318.506 5.63965L321.46 8.05664L324.683 11.0107L328.174 14.7705L331.665 19.3359L334.888 24.1699L337.305 28.4668L340.259 34.6436L342.944 41.626L344.824 47.5342L345.63 51.2939V53.1738L339.99 56.665L334.351 60.4248L327.368 64.9902L322.266 68.2129L309.644 76.001L305.078 78.9551L301.318 81.6406L300.781 83.5205L298.901 84.8633L295.679 86.4746L289.233 90.5029L284.131 93.7256L279.297 96.9482L277.686 99.3652L276.88 100.439L277.148 102.051L278.491 106.079L281.445 117.896L282.788 125.952L283.594 132.935L284.399 143.677L284.937 157.91L285.205 168.652V194.165L284.937 205.444L284.399 215.649L282.788 233.374L281.982 245.728V257.812L282.52 264.258L283.594 272.046L286.816 290.039L290.308 308.032L291.919 315.552L294.873 329.517L298.901 348.853L302.393 366.577L305.347 382.153L310.181 408.74L313.94 427.271L315.283 433.716L317.432 445.801V449.023L316.357 449.829L305.615 451.709L280.64 456.812L275 457.617L252.71 459.766L234.448 461.646L222.363 462.988L198.999 466.211L185.034 468.359L174.023 470.239L167.31 471.582L165.161 472.119L162.476 472.388H158.716L157.373 471.582L156.567 470.239L156.299 467.822L157.373 466.479L157.104 463.794L154.419 453.857L151.733 444.458L149.316 434.79L142.334 403.369L137.231 378.662L133.203 358.521L130.786 345.361L128.101 329.785L124.878 311.523L121.118 292.725L118.164 280.908L114.136 268.286L110.913 259.155L106.885 248.95L103.125 239.551L100.171 232.568L95.0684 221.021L92.6514 215.112V214.575L90.5029 215.649L86.4746 218.335L81.6406 221.289L77.0752 224.243L73.8525 226.392L69.2871 229.346L68.75 229.614L67.9443 232.837L66.8701 233.911L50.7568 234.448H22.8271L1.61133 233.911L0.537109 232.837L0 230.957L0.805664 229.346L2.68555 226.66L5.9082 220.483L8.59375 215.381L11.2793 210.547L15.5762 201.953L18.5303 196.313L22.8271 187.72L26.5869 180.469L29.541 175.098L31.1523 173.218L31.6895 172.949H35.4492L39.7461 170.264L46.9971 165.43L52.6367 161.938L57.2021 158.984L62.3047 155.762L66.333 153.076H66.8701L66.0645 150.391L66.6016 150.122H68.2129L69.5557 146.631L70.3613 144.751L71.7041 138.037L73.3154 132.666L76.8066 124.341L80.2979 118.433L82.4463 115.747L84.8633 113.062L88.0859 110.107L91.5771 107.959L95.3369 106.079L98.8281 105.005L101.514 104.468L105.811 104.199L109.839 104.736H111.45L112.524 103.394L114.673 99.6338L116.821 94.7998L120.312 88.623L123.267 85.4004L126.221 82.9834L129.175 80.835L133.74 78.1494L138.037 76.5381L146.362 74.9268L149.048 74.6582H153.882L157.642 75.1953L161.67 76.5381H164.624L165.698 76.8066L166.504 74.6582L167.847 70.6299L170.801 64.4531L174.561 58.8135L177.515 55.0537L181.543 50.7568L184.497 48.3398L189.331 44.8486L196.045 41.626L200.879 40.2832L205.713 39.4775H213.77L215.112 38.9404L216.992 39.209L222.632 41.8945L226.66 44.8486L228.271 45.9229L230.151 47.2656L234.18 44.5801L250.293 34.1064L253.784 31.6895L255.664 29.541L257.812 28.4668L260.229 27.6611L263.721 25.5127L269.092 23.0957L272.583 20.9473L278.491 17.4561L285.474 13.1592L290.576 9.93652L296.753 6.17676L300.513 3.75977L305.078 1.07422L307.764 0Z" fill="#EEBECA"/>
<path d="M182.08 122.729H182.617L184.497 124.878L188.257 127.295L191.211 128.638L194.165 129.443H198.73L202.759 128.369L205.981 127.026L211.084 124.072L211.621 124.341L211.89 127.295V131.323L209.204 133.203L203.833 136.694L193.628 143.14L188.794 146.094L184.229 149.048L177.783 153.076L171.875 156.836L167.041 159.79L161.133 163.55L156.03 166.772L149.316 171.069L142.871 175.098L139.38 177.246L134.814 179.932L129.712 183.154L123.267 187.183L113.062 193.628L102.051 200.342L98.5596 202.49L92.9199 206.25L88.0859 209.204L85.6689 210.815L83.5205 212.158H82.7148V212.695L77.8809 215.649L75.4639 217.261H74.6582V217.798L68.2129 221.021L66.8701 220.483L67.1387 218.335L67.9443 216.992V213.77L66.8701 211.353L63.916 209.473L62.5732 208.936L60.1562 208.398L59.082 207.593L59.3506 205.713L60.1562 203.833V201.685L59.082 199.268L58.0078 197.925L56.1279 196.851L53.1738 196.313L47.5342 196.045L46.7285 195.508V193.359L47.8027 190.137L48.6084 185.84L48.3398 183.154L47.2656 180.2L44.3115 178.052L43.7744 176.978L44.043 175.903L46.7285 173.755L47.8027 173.486V172.949L50.4883 171.338L53.7109 169.189L56.665 167.31L60.6934 164.893L66.6016 161.133L69.0186 159.521L70.6299 158.984L71.9727 160.327L74.6582 164.624L77.6123 167.578L80.2979 169.189L82.4463 170.264L84.0576 170.801L97.2168 172.681H99.3652L104.736 171.606L107.959 170.532L110.376 169.458L114.136 167.31L117.09 164.893L119.775 162.207L122.998 157.91L126.221 152.808L128.906 146.899L130.786 141.26L132.129 141.797L135.62 143.945L139.917 145.825L144.482 147.168L145.825 147.437H152.808L157.373 146.362L161.67 144.482L166.504 141.528L170.264 138.306L173.486 135.083L175.903 132.129L179.126 127.563L181.812 122.998L182.08 122.729Z" fill="#FEFFFE"/>
<path d="M210.278 140.454L211.621 140.991L214.844 143.945L217.798 146.899L220.483 150.391L223.706 154.688L225.854 158.179L227.466 161.938L228.809 167.578L229.077 169.189V174.829L228.003 179.395L226.392 183.423L224.78 186.108L222.363 189.062L219.141 191.748L216.724 193.091L214.844 193.628L212.427 193.896L208.667 193.359L205.176 192.285L201.416 190.405L199.268 188.794L196.851 186.108L193.896 181.274L191.479 177.515L189.331 175.903H186.646L183.96 177.246L180.469 180.737L178.589 182.886L175.366 186.646L168.921 193.091L165.161 196.045L160.864 198.73L155.762 200.879L151.733 202.222L149.048 202.759H145.557L141.797 201.685L139.38 200.073L137.769 197.925L136.694 194.971L136.426 193.628V187.183L137.769 186.108L142.871 182.886L148.511 179.395L164.624 169.189L174.829 162.744L180.469 159.253L191.479 152.271L196.045 149.316L201.685 145.825L208.13 141.797L210.278 140.454Z" fill="#FEFFFE"/>
<path d="M307.227 7.51953L309.912 7.78809L313.135 9.39941L316.357 11.8164L320.386 15.5762L323.34 18.7988L326.831 23.3643L328.711 26.3184L331.396 30.8838L333.813 35.9863L336.23 42.4316L338.11 48.877V50.4883L335.156 52.6367L333.545 53.7109H332.739V54.248L329.785 55.8594L326.562 58.0078L324.683 59.082L323.608 59.3506V59.8877L320.654 61.499L317.7 63.3789L316.357 64.1846H315.552V64.7217L314.478 65.2588H313.672V65.7959L310.718 67.4072L309.644 67.6758V68.2129L307.764 69.2871L305.347 70.8984L302.661 72.2412L301.05 71.9727L299.17 65.5273L297.559 60.9619L295.142 55.8594L292.993 52.3682L290.845 49.4141L289.771 47.8027L289.502 46.9971H288.965L287.085 44.8486L284.937 43.2373L283.594 41.8945L280.103 39.209L278.76 37.8662L277.954 37.3291V36.792L276.611 36.2549L274.463 34.6436L270.972 32.2266L270.435 31.4209L270.703 30.0781L272.046 29.0039L277.686 25.7812L280.103 24.1699L284.131 21.7529L287.085 19.873L290.845 17.4561L297.559 13.1592L300.513 11.2793L305.078 8.59375L307.227 7.51953Z" fill="#FEFFFE"/>
<path d="M261.304 35.9863H263.989L266.406 37.0605L269.629 39.209L272.852 41.626L275.806 44.043L277.417 45.3857L279.297 47.5342L281.177 49.4141L283.057 51.5625L283.325 52.3682H283.862L285.742 55.0537L287.354 57.2021L288.965 60.1562L290.845 63.916L291.919 66.6016L293.262 72.5098L293.799 75.4639V77.3438L293.262 78.6865L291.65 80.5664L287.622 83.5205L285.742 84.5947L284.668 84.8633V85.4004L282.788 86.4746L281.445 87.5488L278.491 89.1602L277.686 89.6973H276.074L273.926 87.8174L270.435 85.1318L265.332 82.4463L258.618 80.0293L254.59 79.2236H248.95L243.042 80.2979L237.939 81.6406H236.06L235.791 81.3721L236.06 77.0752L236.328 74.3896V64.1846L235.522 58.2764L234.448 53.9795L234.717 52.6367L236.328 51.2939L238.745 49.6826L243.042 46.9971L247.07 44.3115L250.024 42.4316L253.784 40.0146L257.275 37.8662L260.498 36.2549L261.304 35.9863Z" fill="#FEFFFE"/>
<path d="M34.1064 182.617L36.5234 182.886L40.2832 183.691L41.626 184.766V187.183L40.8203 189.868L38.6719 195.776L37.8662 198.999L38.1348 201.685L38.6719 203.027L40.0146 203.564L42.7002 204.102L46.9971 203.564H49.4141L49.9512 203.833V205.444L47.2656 209.473H46.7285L46.46 210.815L45.9229 212.158L46.1914 214.575L46.46 215.649L48.0713 216.187L49.9512 216.724L54.7852 216.455L55.5908 216.724L56.1279 218.066L54.7852 220.752L54.248 222.095V224.512L54.5166 226.66L53.1738 227.466L50.7568 227.734L41.0889 228.003H37.5977L35.7178 227.466L33.8379 225.317L32.4951 223.169V222.363H31.958L30.6152 219.946L27.9297 216.187L26.8555 214.844V214.307H26.3184L24.4385 211.353L21.7529 207.861L21.2158 206.519L22.0215 204.102L25.5127 197.119L26.5869 194.434H27.124L27.9297 192.017L31.4209 185.034L33.3008 182.886L34.1064 182.617Z" fill="#FEFFFE"/>
<path d="M306.689 6.44531H309.106L310.718 6.98242L314.746 8.8623V9.39941L316.357 9.93652L316.626 10.7422L317.7 11.0107V11.5479L318.774 12.085L320.654 13.6963L321.997 15.3076L323.34 16.6504L326.562 20.6787L327.637 22.29V22.8271H328.174L328.711 24.4385H329.248L330.859 27.3926L332.471 30.0781L335.156 36.2549L336.499 39.4775L336.768 41.3574H337.305L338.11 44.3115L339.453 49.6826L338.916 51.2939L338.647 51.8311L336.768 52.9053L331.934 56.1279L329.517 57.4707L326.831 59.3506L323.877 60.9619L320.117 63.3789L316.626 65.5273L312.598 67.9443L310.181 69.5557L308.301 70.6299L302.393 74.1211L301.05 74.3896L299.976 73.8525L298.901 71.167L297.559 65.2588L296.216 62.3047L294.336 57.4707L290.576 51.5625L288.428 48.877L286.011 45.9229L283.057 43.5059V42.9688L281.445 42.1631V41.626L280.371 41.0889L277.686 38.9404L273.389 35.7178L269.897 33.5693L269.36 33.3008V32.7637L268.555 32.4951L268.018 30.6152L269.897 28.4668L272.852 26.5869L275.537 25.2441L278.223 23.3643L281.177 21.7529L282.52 20.6787L285.474 19.0674L291.382 15.3076L295.679 12.6221L296.484 12.3535L296.753 11.5479L299.707 9.93652L302.393 8.3252L304.272 7.25098L306.689 6.44531ZM307.227 7.51953L302.124 10.2051L297.021 13.4277L291.65 16.9189L287.891 19.3359L284.937 21.2158L280.103 24.1699L274.463 27.6611L271.24 29.541L270.435 30.3467L270.703 31.6895L272.046 33.0322L276.074 35.7178L277.417 36.792H277.954V37.3291L279.834 38.6719L281.177 40.0146L284.668 42.7002L286.011 44.043L288.159 45.9229L288.965 46.9971H289.502L290.039 48.0713L291.919 51.0254L293.53 53.1738L295.142 55.8594L298.096 62.3047L299.707 67.4072L301.05 71.9727L302.661 72.2412L305.615 70.6299L308.569 68.75L309.644 68.2129V67.6758L310.718 67.4072L313.672 65.7959V65.2588L314.746 64.9902L315.552 64.7217V64.1846L316.626 63.916L318.506 62.8418L322.803 60.1562L323.608 59.8877V59.3506L324.683 59.082L328.174 56.9336L330.591 55.3223L332.739 54.248V53.7109L333.813 53.4424L336.768 51.5625L338.11 50.4883L337.842 47.8027L335.693 40.8203L333.276 34.6436L330.591 29.541L328.442 25.7812L326.562 23.0957L324.146 19.873L320.923 16.1133L317.969 13.1592L315.015 10.7422L311.792 8.59375L308.838 7.51953H307.227Z" fill="#F7DDE4"/>
<path d="M69.5557 157.91L71.4355 158.179L72.5098 159.521L72.7783 160.596H73.3154L74.1211 162.207V162.744H74.6582L75.7324 164.087V164.624L76.5381 164.893L77.6123 166.235L80.2979 168.115L82.9834 169.458L85.9375 170.264L94.5312 171.606L99.3652 171.875L104.468 171.069L108.765 169.727L110.107 169.189L110.913 169.458L108.496 170.532L105.542 171.606L100.977 172.681L99.3652 172.949L95.0684 172.681L84.0576 171.069L80.835 169.727L78.418 168.384L75.7324 165.967L73.8525 163.818L71.7041 160.327L70.6299 159.253L68.2129 160.327L63.6475 163.281L60.1562 165.43L57.7393 167.041L55.3223 168.384L52.6367 170.264L48.3398 172.949H47.8027V173.486L44.8486 175.366L44.043 176.172L44.3115 178.052L45.3857 178.589L47.5342 180.2L48.6084 183.154L48.877 185.84L48.0713 190.137L46.9971 193.359V195.508L47.5342 195.776L53.1738 196.045L56.3965 196.582L58.8135 198.462L59.8877 200.073L60.4248 201.685V203.833L59.3506 206.25V207.593L60.9619 208.398L63.1104 208.936L65.7959 210.278L67.1387 211.353L68.2129 213.77V216.992L67.1387 219.141V220.483L68.4814 220.752L72.7783 218.335L73.8525 217.798H74.6582V217.261L76.5381 216.187L81.3721 213.232L82.7148 212.695V212.158L85.6689 210.547L88.623 208.667L91.8457 206.519L93.7256 205.444L98.5596 202.222L106.885 197.119L113.062 193.359L128.369 183.691L129.712 182.886L130.249 183.154L125.684 186.108L120.581 189.331L116.821 191.748L111.719 194.971L107.153 197.925L101.245 201.685L95.874 205.176L91.5771 207.861L88.623 210.01L84.0576 213.232L77.3438 217.529L73.3154 219.946L69.0186 222.363L67.1387 222.632L64.7217 222.095L63.916 220.752L65.2588 218.335L66.333 216.455V214.575L66.0645 212.427L65.2588 212.158V211.621L64.1846 211.084L61.7676 210.278L57.7393 209.741L56.665 208.667L56.9336 207.324L58.2764 204.37L58.5449 201.953L58.0078 200.073L56.665 198.73L55.0537 197.925L53.7109 197.656L45.9229 197.388L44.8486 196.582L45.1172 194.165L46.46 189.6L46.9971 185.571L46.46 182.617L45.3857 180.737L44.043 179.663L42.7002 178.857L41.626 178.589L41.0889 177.515L41.3574 176.172L41.8945 175.366H42.4316L42.7002 174.561L44.5801 173.486L45.3857 173.218V172.681L48.3398 171.069L49.6826 170.264L50.7568 169.458H51.5625V168.921L54.7852 166.772L58.2764 164.355H59.082V163.818L61.7676 162.476L64.1846 160.864L66.8701 159.253L69.5557 157.91Z" fill="#F7DDE4"/>
<path d="M261.572 34.375H263.721L266.675 35.1807L269.629 37.3291L274.463 40.8203L275.537 41.8945V42.4316H276.343L282.52 48.6084L285.205 51.5625L288.428 56.3965L290.308 59.3506L292.188 63.3789L293.53 67.1387L294.873 73.584L295.142 77.3438L294.067 79.4922L292.188 81.6406H291.65V82.1777L288.159 84.5947L284.937 86.7432L283.057 87.8174L279.834 89.6973L277.954 90.7715H276.074L272.314 87.5488L270.972 86.4746L266.406 83.7891L262.915 82.4463L258.618 80.835L256.201 80.2979L251.904 80.0293L248.145 80.2979L241.699 81.6406L236.328 82.9834L234.985 82.4463V79.2236L235.522 75.7324L235.791 72.5098V66.6016L235.522 62.8418L234.18 56.665L233.643 54.7852L233.374 52.3682L234.448 50.7568L236.597 49.4141H237.134V48.877L238.745 47.8027L241.699 45.9229L243.042 45.1172H243.579V44.5801L247.07 42.7002L249.756 40.8203L253.516 38.4033L254.59 37.5977H255.396V37.0605L258.081 35.4492L260.229 34.6436L261.572 34.375ZM261.304 35.9863L258.081 37.3291L252.441 40.8203L248.413 43.5059L245.459 45.3857L241.431 48.0713L238.745 49.6826L236.328 51.2939L234.717 52.6367L234.448 53.9795L235.791 59.8877L236.328 64.1846V74.3896L235.791 79.2236V81.3721L236.06 81.6406H237.939L244.116 80.0293L248.95 79.2236H254.59L259.424 80.2979L265.869 82.7148L270.435 85.1318L274.194 88.0859L276.074 89.6973H277.686L280.64 87.8174L282.52 86.7432L283.862 85.6689L284.668 85.4004V84.8633L285.742 84.5947L288.696 82.7148L292.188 80.0293L293.53 78.418L293.799 77.3438L293.53 73.8525L292.456 68.75L291.382 65.2588L289.502 60.9619L287.891 58.2764L284.668 53.4424L283.862 52.3682H283.325L282.788 51.2939L279.834 48.0713L278.223 46.1914L273.926 42.4316L270.435 39.7461L267.212 37.5977L265.332 36.5234L263.989 35.9863H261.304Z" fill="#F7DDE4"/>
<path d="M33.5693 181.274H35.9863L39.7461 182.08L42.1631 182.886L42.9688 184.229L43.2373 186.377L41.8945 190.405L40.5518 193.628L39.209 197.925V200.342L39.4775 201.685H40.0146L40.8203 202.49L41.3574 202.759H44.3115L45.9229 202.49H50.7568L51.5625 202.759L51.8311 204.639L50.4883 207.324L48.877 209.204L47.5342 211.621V213.501L48.0713 214.575L49.1455 215.112H57.2021L58.8135 215.649L59.082 216.992L58.0078 219.141L56.665 220.483L55.8594 221.558L55.5908 223.706L56.3965 225.586L56.9336 226.392L56.665 227.734L55.0537 228.54L51.8311 228.809L43.2373 229.077H36.2549L34.6436 228.271L32.2266 225.049L30.6152 222.095L29.0039 219.678L27.6611 217.798V217.261L26.8555 216.992L25.2441 214.575L24.707 213.501H24.1699L23.9014 212.427H23.3643L20.9473 209.204L20.4102 208.667V207.861H19.873V205.176L20.9473 202.759L23.0957 198.193L23.6328 197.925L24.1699 196.045L25.7812 192.554L27.6611 188.525L30.3467 183.423L32.2266 181.812L33.5693 181.274ZM34.1064 182.617L32.7637 183.423L31.1523 185.571L27.3926 193.091L27.124 194.434H26.5869L25.5127 197.119L22.0215 204.102L21.2158 206.519L22.29 208.667L25.2441 212.427L26.3184 214.307H26.8555L27.3926 215.381L30.8838 220.483L31.958 222.363H32.4951L32.7637 223.438L34.6436 226.392L36.2549 227.734L38.6719 228.003H43.5059L51.2939 227.734L53.9795 227.197L54.5166 226.66L54.248 224.512V222.095L55.3223 219.678L56.1279 218.066L55.5908 216.724L53.4424 216.455L49.9512 216.724L47.2656 215.918L46.46 215.649L45.9229 213.232L46.1914 211.353L46.7285 210.278V209.473L47.5342 209.204L49.4141 206.25L49.9512 205.444V203.833L49.4141 203.564H46.9971L41.8945 204.102L38.6719 203.027L37.8662 200.342L38.1348 197.925L39.4775 193.628L41.3574 188.525L41.626 187.183V184.766L40.2832 183.691L34.9121 182.617H34.1064Z" fill="#F7DDE4"/>
<path d="M257.812 28.4668H258.618L258.081 29.541L256.738 30.8838L254.053 31.6895L254.59 30.6152L256.47 29.0039L257.812 28.4668Z" fill="#F7DDE4"/>
<path d="M120.581 160.596V161.401L118.164 164.087L116.284 165.967L114.941 167.041L114.404 166.772L118.433 163.013L120.581 160.596Z" fill="#F7DDE4"/>
<path d="M128.638 62.5732L129.175 62.8418L128.101 63.6475L127.563 63.3789L128.638 62.5732Z" fill="#F4D2DB"/>
<path d="M129.712 62.0361L130.249 62.3047L129.175 62.5732L129.712 62.0361Z" fill="#F5D6DE"/>
</svg>
