<svg width="235" height="398" viewBox="0 0 235 398" fill="none" xmlns="http://www.w3.org/2000/svg">
<path d="M126.221 0H132.129L137.231 0.805664L141.528 2.41699L145.288 4.56543L148.242 6.98242L152.002 10.7422L155.225 15.5762L157.373 20.4102L158.984 25.7812L159.79 31.1523L160.327 37.3291V41.3574L163.281 39.7461L167.31 38.1348L172.949 36.792L175.635 36.5234H178.32L182.617 37.3291L185.034 38.4033L187.72 40.0146L190.405 42.7002L192.822 46.46L194.702 50.4883L197.388 57.7393L199.536 65.5273L201.685 75.7324L202.49 82.1777L203.296 91.3086L204.102 111.182V147.705L203.564 159.521L202.222 176.44L201.416 185.84L201.147 190.405V198.462L201.953 207.056L203.296 215.918L205.176 226.123L208.13 241.699L211.89 259.961L216.992 284.399L221.558 307.495L224.78 325.22L227.197 338.11L229.883 351.807L231.494 359.595L234.18 374.365V375.977L233.105 377.051L223.438 378.662L215.381 380.273L204.102 382.69L197.925 383.765L192.017 384.57L163.281 387.256L141.797 389.673L128.369 391.553L110.645 394.238L97.4854 396.655L92.9199 397.729L90.7715 397.998H87.5488L86.2061 396.655L85.4004 395.312L85.1318 394.238L85.9375 392.896L86.2061 392.627V390.479L83.7891 381.348L80.835 371.411L78.6865 362.28L74.9268 345.093L72.5098 334.619L69.8242 321.729L67.1387 308.301L65.2588 299.17L63.1104 288.159L60.6934 274.194L58.0078 258.35L55.5908 245.728L52.9053 232.3L50.4883 222.632L47.8027 213.77L44.5801 204.102L42.1631 197.656L37.8662 186.914L34.6436 179.126L31.4209 171.875L29.2725 166.772L26.3184 160.059L22.29 151.196L18.5303 142.871L15.8447 136.426L12.6221 128.638L7.78809 117.896L4.83398 109.839L2.9541 103.394L1.07422 95.0684L0.268555 88.0859L0 82.7148V79.4922L0.537109 71.9727L1.34277 67.1387L3.22266 60.6934L5.63965 55.5908L7.51953 52.9053L10.4736 49.9512L14.7705 47.8027L17.4561 46.9971L19.6045 46.7285H23.0957L27.6611 47.8027L31.6895 49.4141L35.1807 51.2939L37.8662 53.1738L38.6719 42.7002L40.0146 33.8379L41.626 27.6611L43.7744 22.29L45.9229 18.5303L49.1455 15.0391L51.8311 12.8906L55.5908 11.0107L58.8135 10.2051H66.6016L70.8984 11.0107L76.8066 13.1592L80.2979 15.0391L84.0576 17.7246L88.0859 21.4844L90.2344 24.1699L92.3828 27.9297L93.9941 31.958L95.6055 37.3291L95.874 37.0605L96.6797 31.958L98.8281 22.8271L100.708 17.1875L102.588 13.4277L104.736 10.4736L107.153 7.78809L109.302 5.9082L112.793 3.75977L118.164 1.61133L122.192 0.537109L126.221 0Z" fill="#EEBDCA"/>
<path d="M117.269 89.4648H121.028L125.594 90.002L130.696 91.3447L134.993 92.9561L139.559 95.373L143.855 98.5957L146.541 101.013L149.227 103.698L152.181 107.458L154.866 111.486L157.015 116.052L158.089 119.006L158.895 122.766L159.163 124.914V127.868L158.357 131.896L156.478 136.73L154.329 140.222L152.181 142.639L148.958 145.056L146.541 146.13L145.198 146.398H141.17L136.604 145.056L133.382 143.444L130.696 141.296L128.011 137.805L125.057 132.971L123.982 131.359L122.64 130.285L121.834 130.017H119.686L117 131.628L112.703 135.925L110.286 138.879L103.304 145.861L99.5439 148.815L95.5156 151.232L91.4873 153.112L87.1904 154.455L85.8477 154.724H81.2822L77.791 153.649L75.374 151.77L74.0312 149.621L72.957 145.861V140.759L73.7627 134.313L75.6426 127.331L78.0596 120.617L81.0137 114.978L83.6992 110.681L87.1904 106.115L89.3389 103.43L91.7559 100.744L94.1729 98.3271L94.4414 97.79H94.9785V97.2529L97.127 95.373L100.081 92.9561L102.767 91.8818L110.286 90.2705L113.509 89.7334L117.269 89.4648Z" fill="#FEFEFE"/>
<path d="M74.5684 30.3828L76.9854 31.1885L79.9395 33.6055L82.0879 35.7539L84.7734 39.2451L87.7275 44.0791L89.3389 46.7646L91.7559 52.1357L93.3672 57.2383V61.8037L92.293 64.4893L90.4131 67.4434L87.9961 70.3975L84.2363 73.3516L82.0879 74.4258L80.208 74.6943L77.791 73.6201L75.1055 71.7402L73.7627 70.666V70.1289L72.6885 69.5918L72.4199 68.7861H71.8828L69.7344 66.1006L67.8545 63.415L65.1689 58.8496L63.2891 54.5527L61.9463 49.9873L61.4092 46.7646V44.3477L61.9463 40.5879L63.2891 38.1709L65.7061 35.4854L69.1973 33.3369L73.7627 30.9199L74.5684 30.3828Z" fill="#FEFEFE"/>
<path d="M136.873 29.04H139.29L141.438 29.5771L144.124 30.6514L146.541 32.7998L148.689 37.6338L150.301 44.3477L150.569 47.0332V49.7188L150.032 53.7471L149.227 56.4326L147.347 60.1924L145.735 62.0723L143.05 63.6836L140.364 64.2207L137.41 63.415L134.725 61.8037L131.771 58.8496L129.354 54.8213L127.742 50.5244L126.937 47.3018V44.0791L127.742 39.5137L129.085 35.4854L131.233 32.2627L133.113 30.6514L135.53 29.3086L136.873 29.04Z" fill="#FEFEFE"/>
<path d="M183.333 57.7754H185.481L187.361 59.1182L189.241 62.0723L190.584 65.0264L191.658 69.8604V76.8428L190.853 81.4082L189.778 85.168L188.704 87.8535L187.093 90.5391L184.944 92.9561L183.064 94.0303L181.722 94.5674H178.768L175.545 92.9561L173.396 90.5391L172.054 87.8535L170.979 84.0938L170.711 79.5283L171.248 74.4258L173.128 68.7861L174.202 66.3691L175.545 63.9521L177.693 61.2666L178.499 60.4609H179.036V59.9238L182.259 58.0439L183.333 57.7754Z" fill="#FEFEFE"/>
<path d="M29.4512 72.5459L31.8682 72.8145L35.3594 74.1572L39.1191 76.5742L40.999 78.1855L43.9531 82.2139L45.5645 85.7051L46.3701 89.1963L45.833 92.4189L44.2217 95.1045L41.8047 96.9844L39.9248 97.5215H37.2393L34.5537 96.4473L32.9424 95.373L30.7939 93.4932L28.6455 90.8076L26.4971 86.7793L25.6914 83.2881V80.334L26.2285 77.1113L27.3027 74.6943L28.1084 73.3516L29.4512 72.5459Z" fill="#FEFEFE"/>
</svg>
