<svg width="340" height="498" viewBox="0 0 340 498" fill="none" xmlns="http://www.w3.org/2000/svg">
<path d="M295.947 0L297.827 0.268555L303.198 2.41699L308.301 5.10254L312.061 7.78809L315.552 10.7422L319.043 13.9648L322.534 17.7246L326.025 22.29L328.979 26.3184L331.934 31.4209L334.351 35.9863L337.842 43.7744L339.453 48.6084L339.99 51.0254L335.156 54.7852L330.591 58.2764L326.025 62.0361L321.729 65.2588L319.043 67.4072L311.523 73.0469L306.421 76.8066L300.781 81.1035L297.021 84.0576L296.753 84.3262L296.484 86.4746L294.336 88.0859L291.382 89.9658L286.548 93.7256L276.343 101.514L272.852 104.199L270.435 105.811L270.972 107.422L274.194 115.747L276.074 122.192L278.223 131.055L279.565 138.574L280.371 145.02L281.177 154.956L281.982 174.292V219.946L281.177 234.448L279.565 252.71L278.76 266.138V274.194L279.834 286.011L281.714 297.559L287.354 326.831L289.502 337.573L291.919 348.584L297.29 374.902L300.244 389.673L302.393 400.684L307.227 427.539L311.792 450.366L313.403 458.691L315.283 469.434L315.552 473.73L314.209 474.536L301.587 476.685L282.788 480.713L273.657 482.324L260.498 483.667L227.466 486.89L209.473 489.038L192.822 491.455L170.532 494.946L160.864 496.826L157.373 497.632H150.928L149.316 495.752L149.048 494.946V492.798L150.391 491.455L149.316 487.158L145.825 474.536L143.408 465.942L139.38 448.486L137.769 440.967L134.277 424.854L129.443 402.026L125.415 381.885L123.804 372.754L121.924 362.817L119.238 346.704L117.896 339.185L115.747 327.368L113.062 314.478L110.645 304.272L108.496 296.484L105.811 287.891L103.125 280.371L98.8281 268.823L95.3369 260.498L88.623 244.385L87.5488 244.922L84.5947 247.07L79.7607 250.83L76.001 253.784L73.3154 255.933L70.6299 257.812L70.3613 258.618V260.767L69.8242 261.841L68.75 262.646L62.3047 263.184L44.5801 265.332L31.6895 266.406L14.502 267.48L5.63965 268.018L4.02832 268.286H1.87988L0.268555 266.943L0 265.063L2.41699 260.498L7.51953 248.413L10.2051 242.236L18.2617 222.095L22.0215 212.964L24.9756 205.981L26.5869 203.564L27.6611 202.759H30.8838L35.1807 199.536L37.8662 197.388L41.3574 194.702L46.1914 190.942L49.9512 187.988L53.4424 185.303L58.2764 181.543L60.1562 180.2L59.6191 177.783L56.665 168.384L55.0537 160.596L54.248 155.762L53.7109 151.196L53.4424 146.899V138.843L53.9795 132.935L55.0537 127.026L56.3965 121.924L58.5449 116.553L60.9619 112.524L63.3789 109.839L65.7959 107.69L67.9443 106.348L71.9727 105.005L73.3154 104.736H80.835L85.1318 105.811L89.4287 107.69L93.9941 110.376L95.6055 111.719H95.874L96.6797 100.171L97.7539 92.9199L99.6338 84.5947L101.245 79.7607L103.662 74.6582L106.079 71.4355L108.228 69.0186L111.45 66.6016L115.747 64.4531L118.164 63.6475L119.775 63.3789H127.832L133.472 64.7217L138.037 66.333L142.603 68.4814L145.825 70.6299L149.585 73.8525L153.345 77.6123L156.03 81.6406L158.179 86.4746L160.059 91.3086V91.8457H160.864L163.818 78.9551L165.698 72.2412L168.384 67.1387L171.069 63.3789L173.486 60.6934L176.978 58.0078L180.737 55.8594L186.377 53.7109L192.285 52.3682L194.434 52.0996H201.416L206.519 52.9053L210.01 53.9795L214.307 56.1279L216.724 57.7393L217.798 57.4707L222.095 53.9795L230.151 47.8027L234.18 44.5801L238.477 41.3574L241.431 38.9404L243.579 37.0605L244.653 35.4492L245.996 34.375L249.756 32.4951L253.516 29.8096L257.812 27.3926L262.646 23.9014L267.212 20.6787L272.314 16.9189L277.148 13.1592L280.371 10.7422L285.474 6.98242L289.771 3.75977L293.262 1.34277L295.947 0Z" fill="#EEBDC9"/>
<path d="M251.904 40.5518H254.858L257.544 41.626L260.498 43.2373L264.795 45.9229L269.897 49.6826L270.972 50.4883V51.0254L272.046 51.5625L274.194 53.4424L278.223 57.4707L280.64 60.4248L283.057 63.916L286.279 70.0928L288.159 75.7324L289.233 80.2979L288.428 82.7148L287.085 84.5947L284.937 86.4746L283.594 87.5488H283.057V88.0859L279.028 91.04H278.491L278.223 91.8457L274.463 94.5312L268.823 98.8281L267.48 99.3652V99.9023L262.378 103.662L257.812 107.153H257.275V107.69L253.247 110.645L249.756 113.33L240.088 120.85L236.328 123.535L233.105 125.952L229.077 128.906L222.095 134.277L217.261 138.037L212.158 141.797L205.176 147.168L200.61 150.659L195.776 154.419L191.479 157.642L187.988 160.327L183.691 163.55L180.2 166.235L174.829 170.264L169.995 174.023L165.698 177.246L162.207 179.932L157.642 183.423L154.419 185.84L148.779 190.137L145.557 192.554L139.917 196.851L136.694 199.268L131.055 203.564L126.489 206.787L120.85 211.084L116.553 214.307L112.793 217.261L108.765 220.215L104.199 223.706L100.977 226.123L97.4854 228.809L92.3828 232.568L90.2344 234.448L87.2803 236.597L83.7891 239.282L80.0293 242.236L77.8809 243.848L74.3896 246.533L71.9727 248.145L70.0928 249.487L69.2871 249.756H67.4072L66.6016 248.95L66.8701 247.07L67.9443 244.922V242.505L67.1387 239.819L63.916 238.208L60.4248 237.402L58.2764 236.865L57.7393 235.791L58.8135 232.031L58.5449 229.883L57.7393 228.003L55.8594 226.392L53.4424 225.586H48.6084L46.9971 225.854H44.5801L43.7744 224.512L45.3857 216.187V213.232L44.5801 210.815L43.2373 208.936L39.209 206.787L38.9404 205.444L40.5518 203.564H41.3574V203.027L44.5801 200.61L47.2656 198.462L50.7568 195.776L55.5908 192.017L59.082 189.331H59.6191V188.794L62.0361 187.183L65.5273 184.497L69.8242 181.006L74.1211 177.783L78.1494 174.561L81.6406 171.875L86.4746 168.115L89.9658 165.43L93.7256 162.476L100.171 157.642L104.736 154.15L106.885 152.539L118.164 143.677L121.655 140.723L125.146 138.037L129.443 134.814L133.74 131.323L138.037 128.101L141.528 125.415L144.214 123.267L147.705 120.581L162.744 108.765H163.281V108.228L167.041 105.542L170.264 102.856L173.755 100.171L176.172 98.291H176.709V97.7539L179.932 95.3369L183.691 92.3828L188.257 88.8916L190.942 86.7432L195.508 83.252L198.193 81.1035H198.73V80.5664L199.805 80.2979V79.7607L200.879 79.4922V78.9551L203.027 77.3438L206.787 74.3896L210.278 71.7041L212.695 69.8242H213.232V69.2871L214.844 68.2129L219.141 64.7217L222.9 61.7676L226.123 59.3506H226.66V58.8135L230.957 55.5908L234.717 52.6367L238.208 49.9512L242.236 46.7285L245.996 43.7744L249.487 41.626L251.904 40.5518Z" fill="#FEFEFE"/>
<path d="M296.484 7.25098H298.364L301.05 8.05664L303.735 9.39941L306.689 11.2793L310.986 14.7705L312.866 16.3818L313.94 17.7246L315.283 19.0674L319.043 23.0957L322.266 27.6611L324.414 31.1523L326.831 35.1807L330.322 42.7002L331.934 46.46L332.471 48.877L331.934 49.9512L328.979 52.0996H328.442V52.6367L327.368 52.9053V53.4424L324.414 55.3223L319.849 58.8135L317.969 60.1562H317.432L317.163 60.9619H316.357L316.089 61.7676L312.329 64.4531L307.227 68.2129L302.393 71.7041L298.096 74.9268L297.021 75.4639H295.679L294.604 74.1211L293.53 71.4355L292.725 68.75L291.113 65.2588L287.891 59.6191L286.011 56.665L285.205 55.8594L283.862 54.248V53.7109L283.057 53.4424L281.177 51.2939L278.76 48.877L275.269 46.1914L272.583 44.3115L269.092 41.8945L265.869 39.7461L262.915 38.1348L259.692 36.2549L259.424 34.6436L262.378 31.958L265.332 30.0781L268.823 27.3926L273.926 23.6328L278.223 20.1416L281.177 17.9932L284.937 15.0391L289.502 11.5479L293.262 8.8623L295.142 7.78809L296.484 7.25098Z" fill="#FEFEFE"/>
<path d="M205.444 155.225L206.519 155.493L210.278 158.716L212.427 160.864L214.307 163.013L216.992 166.504L219.409 170.264L221.558 174.292L222.9 178.052L224.243 183.423L224.512 185.84V189.062L223.438 193.896L222.095 197.656L220.483 200.879L218.604 203.296L216.455 205.713L213.232 208.13L211.084 209.204L209.473 209.741H204.907L199.805 208.398L195.508 206.25L193.091 204.37L190.942 201.953L187.451 196.313L185.303 193.091L183.423 191.479L181.543 191.211L179.395 191.748L176.709 193.628L174.292 196.045L171.875 198.999L169.189 201.685L167.31 203.833L162.744 208.398L160.596 210.278L157.104 212.964L152.808 215.381L149.316 216.992L144.482 218.604L141.528 219.141H138.037L134.814 218.335L132.129 216.992L129.98 214.844L129.712 212.964L131.592 211.353L136.963 207.324L141.528 203.833L144.751 201.416L152.808 195.239L158.179 191.211L161.67 188.525L170.801 181.543L176.44 177.246L185.034 170.801L189.6 167.31L194.971 163.281L198.462 160.596L203.296 156.836L205.444 155.225Z" fill="#FEFEFE"/>
<path d="M129.443 80.0293L131.592 80.2979L134.277 82.4463L137.5 85.4004L140.723 89.4287L142.871 92.6514L145.288 96.6797L147.437 100.977L149.585 106.348L150.391 108.496L150.122 110.107L146.899 112.793L143.14 115.747L140.991 117.358H140.454V117.896L136.963 120.581L132.935 123.804L131.055 125.146L129.98 125.415L127.832 123.535L125.415 120.85L122.729 117.09L120.312 113.062L118.164 108.765L116.553 104.199L115.747 101.245L115.479 99.3652V93.9941L116.284 90.5029L117.896 87.8174H118.433L118.97 86.7432L120.85 85.1318L123.804 83.252L127.563 81.3721L129.443 80.0293Z" fill="#FEFEFE"/>
<path d="M30.6152 212.158H33.0322L37.0605 212.695L38.6719 213.501L39.209 214.307V216.455L37.5977 223.169L36.5234 228.003V230.42L37.0605 232.3L39.7461 233.643H41.8945L46.46 232.568H49.6826L49.9512 233.911L48.877 236.06L46.7285 239.819L46.1914 241.431V243.579L47.2656 245.19L48.3398 245.728H51.5625L54.7852 245.19L57.2021 245.459L57.4707 247.07L56.3965 248.95L55.3223 251.367L55.5908 253.784L56.3965 256.201L55.3223 257.275L49.9512 258.081L42.4316 259.155L37.0605 259.424L34.9121 258.35L31.6895 253.784L29.8096 251.367L27.3926 248.413L27.124 247.607H26.5869L24.707 245.459L23.3643 244.116V243.579H22.8271L20.9473 241.431L19.3359 239.014V236.865L20.9473 232.837L22.8271 227.466L26.5869 218.066L28.1982 214.307L29.2725 212.964L30.6152 212.158Z" fill="#FEFEFE"/>
<path d="M257.544 116.016L258.35 116.284L259.692 119.507L260.498 122.998L260.767 125.146V131.86L259.961 136.963L257.812 143.408L255.664 147.437L253.247 149.854L250.562 151.196L249.487 151.465H246.802L243.848 150.391L241.699 148.511L239.819 145.557L238.208 140.723L237.671 138.306V131.86L238.745 130.249L241.968 127.563L244.385 125.684L249.487 121.924L252.173 119.775L255.664 117.09L257.544 116.016Z" fill="#FEFEFE"/>
<path d="M78.9551 127.026L81.3721 127.295L85.9375 129.175L89.6973 131.592L92.3828 134.009L94.5312 136.694L96.6797 140.723L98.0225 145.02V147.705L96.9482 150.391L96.1426 151.733L93.9941 153.613L91.3086 154.956H88.0859L85.4004 153.882L82.1777 151.733L80.2979 149.585L80.0293 148.779H79.4922L77.3438 145.557L75.7324 141.797L75.1953 139.111L75.4639 134.814L76.5381 130.518L78.1494 127.832L78.9551 127.026Z" fill="#FEFEFE"/>
</svg>
