<svg width="130" height="134" viewBox="0 0 130 134" fill="none" xmlns="http://www.w3.org/2000/svg">
<path d="M0.694723 133.387H1.38945L3.73413 132.605L14.5023 129.826L17.8023 129.045L22.839 127.829L26.9205 126.787L28.31 126.266L28.7442 125.919L29.0047 125.397L29.0915 124.355L31.1757 122.271L31.8704 121.663L32.8257 120.708L32.9993 120.621V120.448L33.3467 120.274L33.4335 120.013L33.7809 119.84L36.1256 117.495L36.8203 116.887L38.644 115.063L38.8176 114.977V114.803L39.165 114.629V114.456L39.5124 114.282L40.2939 113.5L40.815 113.066V112.892L41.1623 112.719L42.5518 111.329L42.8123 111.156V110.982L43.0728 110.895L43.4202 110.548L43.5939 110.982L44.2017 111.937L44.8965 112.806L45.678 113.587L46.6333 114.369L47.6754 115.324L49.2385 116.366L50.6279 117.061L51.8437 117.582L53.841 118.103L54.4489 118.277L54.6226 119.753L55.0568 121.229L55.6647 122.619L56.3594 123.834L57.1409 124.79L57.8357 125.397L58.6172 125.745L59.0514 125.832H59.833L60.6146 125.571L61.3093 125.05L61.8303 124.442L62.525 123.053L63.0461 121.403L63.4803 119.232L63.8277 116.887L63.9145 116.453L65.5645 115.585L67.1276 114.629L68.2565 113.761L69.4723 112.719L70.2538 111.85L71.2091 110.374L71.9906 108.724L72.6854 106.64L73.1196 104.643L73.3801 102.472L73.4669 100.474V100.127H74.6827L76.159 99.7796L77.5484 99.0848L79.0247 98.0428L80.1536 97.0007L81.1957 95.9586L82.0641 94.8297L82.8457 93.6139L83.1062 93.3534H84.1483L86.1456 93.1797L87.8824 92.8323L89.3587 92.3113L90.7482 91.6166L91.8771 90.835L92.7455 90.0534L93.7007 89.0982L94.656 87.7956L95.6112 86.2325L96.3059 84.7562L96.9138 83.0194L97.2612 81.2826L97.348 80.501V75.3774L96.827 70.7749L96.2191 66.346L95.9586 63.2198L95.8717 61.0488L96.0454 60.2672L96.6533 59.5725L98.6506 57.5752L99.3454 56.9673L100.214 56.0989L100.908 55.491L102.124 54.2752L102.819 53.6673L104.295 52.191L104.99 51.5832L105.858 50.7148L106.553 50.1069L108.55 48.1096L109.245 47.5017L110.2 46.5464L111.329 45.678L112.198 45.2438L112.892 44.4623L113.413 43.5939L114.195 42.7255L114.977 41.9439L115.671 40.9018L116.627 39.8597L118.016 38.3834L120.534 35.8651L121.142 35.1703L122.011 34.3888V34.2151L122.358 34.0414L128.958 27.4415L129.739 26.4863L130 25.7916V25.0969L129.566 23.4469L129.045 21.6232L128.263 19.7996L127.221 17.8891L125.919 15.9786L125.05 14.8497L124.008 13.6339L122.792 12.3313L121.576 11.1156L120.882 10.5077L119.927 9.72612L118.798 8.85771L117.061 7.64195L115.15 6.42618L113.587 5.47094L112.198 4.77622L111.329 4.51569L110.895 4.9499L110.114 5.8183L109.419 6.42618L107.508 8.33667L106.814 8.94455L106.032 9.72612L105.337 10.334L104.295 11.3761L104.122 11.4629V11.6366L103.774 11.8103L103.427 12.2445L102.732 12.8524L101.951 13.6339L101.256 14.2418L99.7796 15.6313L98.6506 16.6733L97.7822 17.8023L97.6954 17.9759L97.348 17.8023L94.5691 15.0234L93.8744 14.4155L92.6586 13.2866L91.7034 12.505L90.835 11.7234L89.7929 10.9419L88.143 9.72612L86.9272 8.94455L85.0167 7.72879L82.9325 6.51302L80.5878 5.29726L77.9826 4.08149L75.6379 3.12625L73.2064 2.25785L69.5591 1.21576L67.1276 0.694719L65.0434 0.347358L62.8724 0.0868365L60.0935 -3.8147e-06H58.8778L56.2725 0.0868365L53.4068 0.521038L50.7148 1.12892L48.3701 1.82364L46.8938 2.34469L45.5043 3.03941L43.8544 3.90781L41.9439 5.03674L40.7281 5.90514L39.7729 6.77354L39.0782 7.38143L38.2966 8.33667L37.515 9.37875L36.8203 10.855L36.4729 12.1576L36.2124 14.9365L36.1256 16.326V25.4442L36.6466 36.7335L36.9071 48.1964V49.5858L36.8203 52.191L36.6466 55.5778L36.4729 57.0541L36.1256 57.7488L35.344 58.6172L34.2151 59.4856L32.9125 60.354L31.523 61.2224L29.9599 62.2645L28.5705 63.2198L26.9205 64.4355L25.6179 65.5645L24.4021 66.7802L23.4469 68.0828L22.5785 69.5591L21.8838 71.2091L21.2759 73.2064L20.9285 75.2037L20.8417 76.3327L20.3206 77.1142L19.5391 78.1563L18.7575 79.4589L17.976 81.1957L17.6286 82.4983V83.2799L17.8891 84.2351L18.3233 84.843L19.1917 85.3641L19.8864 85.5377L20.7548 85.4509L22.2311 85.0167L22.9259 84.6693L23.7074 85.5377L24.2285 86.1456L25.3574 87.014L25.8784 87.3614L25.9653 87.5351L25.6179 87.7088L21.0154 92.3113L20.4075 92.8323L19.9733 93.3534L19.7996 93.4402V93.6139L19.4522 93.7876L17.2812 95.9586L16.5865 96.5665L14.4155 98.7375L13.7208 99.3454L10.9419 102.124L9.55244 103.34L9.20508 103.687V103.861L8.85772 104.035L8.42351 104.469L7.12091 104.382L6.68671 104.643L6.33935 105.164L5.90514 107.161L4.9499 110.635L3.90782 114.369L3.47361 116.192L2.43153 120.795L1.38945 125.484L0.694723 129.218L0.173681 131.303L0 131.824V132.605L0.347361 133.126L0.694723 133.387ZM126.353 26.66L126.526 26.2258L127.395 24.489L127.482 24.6627L127.308 25.4442L126.787 26.3126L126.353 26.66Z" fill="#FFC1D0"/>
<path d="M28.0495 120.968H28.5705L29.4389 120.187L30.5678 119.145L31.0889 118.711L31.5231 118.19L32.0441 117.755V117.582L32.3915 117.408V117.234L32.7388 117.061L34.1283 115.671L34.7362 115.15V114.976L35.0835 114.803L35.7783 114.108L36.2993 113.674V113.5L36.6467 113.326L37.3414 112.632L37.8624 112.198V112.024L38.2098 111.85L39.3387 110.721L39.5124 110.634V110.461L39.8598 110.287V110.113L40.2071 109.94V109.766L40.4676 109.679V109.506L40.815 109.332L41.9439 108.203L42.465 107.769L45.157 105.077L45.3307 104.99V104.816L45.6781 104.642L47.5885 102.732L47.8491 102.558V102.385L48.1964 102.211V102.037L48.5438 101.864V101.69L48.8912 101.516L50.9753 99.432L51.149 99.3452V99.1715L51.4964 98.9978L52.799 97.6952L52.9726 97.6084V97.4347L53.32 97.261L55.1437 95.4374L55.8384 94.8295L58.0094 92.6585L58.5304 92.398L59.7462 93.9611L59.833 93.7006L59.1383 92.6585L58.3568 91.6164L57.4015 89.9664L56.7936 88.577L56.0121 86.2323L55.6647 84.756V83.1929L56.3594 80.935L56.9673 79.5456L57.5752 78.6772L58.3568 77.8088L59.5725 77.0272L60.7014 76.5062L62.5251 75.8983L64.4356 75.4641L64.9566 75.3773H66.7803L69.4723 75.7246L70.5144 75.8983H71.1223L71.3828 72.1642L71.6433 70.601L72.0775 69.559L72.8591 68.3432L73.467 67.5616L74.0749 66.8669L75.1169 66.0854L76.5064 65.3906L78.33 64.8696L79.8063 64.6091L80.3274 64.5222H82.7589L83.6273 64.7827L85.7983 65.8248L86.1457 65.738L86.6667 65.3038L87.7956 64.1749L88.3167 63.7407V63.567L88.664 63.3933V63.2196L89.0114 63.0459L90.4008 61.6565L90.6614 61.4828V61.3091L91.0087 61.1355L91.5298 60.7012L91.8771 60.3539V60.1802L92.2245 60.0065L92.8324 59.4855L93.2666 58.9644L94.135 58.2697L94.656 57.6618L95.0902 57.3145L96.9139 55.4908L97.6086 54.8829L98.7375 53.754L99.6059 53.0593L100.127 52.4514L100.387 52.2777V52.1041L100.648 52.0172V51.8435L100.909 51.7567V51.583L101.256 51.4093L102.645 50.0199L102.906 49.8462V49.6725L103.253 49.4988L104.122 48.6304L104.295 48.5436V48.3699L104.556 48.2831V48.1094L104.816 48.0226V47.8489L105.164 47.6752L105.858 46.9805L106.379 46.5463L106.814 46.1121V45.9384L107.161 45.7647L108.203 44.7226L108.377 44.6358V44.4621L108.724 44.2884V44.1147L109.072 43.9411L109.332 43.6805V43.5069L109.593 43.42L110.287 42.5516L110.548 41.8569L110.635 41.1622V40.5543L110.374 39.599L109.679 37.7754L108.464 35.1702L107.422 33.3465L106.987 32.7387L106.64 32.1308L105.598 30.7413L105.511 30.5676H105.337L105.164 30.1335L104.556 29.4387H104.382L104.208 29.0914L103.948 28.744H103.774L103.601 28.3966L102.645 27.5282L101.777 26.8335L99.8664 25.6178L98.9112 25.0967L97.5218 24.4888L96.5665 24.0546L96.0455 23.8809H95.4376L94.2218 24.4888L93.2666 25.2704L92.2245 26.3125L91.5298 26.9204L86.7535 31.6966L86.0588 32.3045L82.4115 35.9518L81.7168 36.5596L77.6353 40.6411L76.9406 41.249L70.8618 47.3278L70.167 47.9357L67.9092 50.1936L67.2145 50.8015L65.6513 52.3646L64.9566 52.9725L62.3514 55.5777L61.6567 56.1856L57.5752 60.267L56.8805 60.8749L46.6333 71.1221L45.9386 71.73L41.5966 76.072L41.4229 76.1588V76.3325H41.2492V76.5062L40.9887 76.593L39.2519 78.3298L38.5572 78.9377L36.2993 81.1956L35.6914 81.7166L35.2572 82.2377L34.7362 82.6719L34.2151 83.2797L34.0415 83.3666V83.5403L33.6941 83.7139V83.8876L33.3467 84.0613L32.3915 85.0165V85.1902L32.131 85.2771L31.6968 85.7113L31.5231 86.0586L31.1757 86.2323L30.0468 87.3612L29.3521 87.9691L28.0495 89.098L26.8337 90.3138L26.3127 90.748L25.7916 91.3559L25.0969 91.9638L24.8364 92.2243V92.398L24.489 92.5717L21.7101 95.3505L21.0154 95.9584L20.4944 96.5663L19.7996 97.1742L19.0181 97.9558V98.1294L18.6707 98.3031L16.4997 100.474L16.326 100.561V100.735H16.1523L12.0708 104.816L11.6366 105.337L11.5498 105.598V106.813L11.8972 107.074L12.6787 106.9L13.2866 106.64L13.9813 106.466H14.5892L15.4576 106.813L16.1523 107.595L16.326 108.377V109.506L16.0655 110.808L16.1523 111.329L16.2392 111.416H16.9339L17.976 111.069L18.8444 110.982L19.5391 111.155L20.2338 111.59L20.7549 112.284L20.9286 112.979V114.108L20.7549 114.976L20.4944 115.932L20.2338 116.54L20.147 117.321L20.3207 117.495L20.668 117.582L23.2733 117.495H25.0101L26.0521 117.755L26.8337 118.276L27.5284 119.058L27.7889 120.187L28.0495 120.968Z" fill="#FDFDFD"/>
<path d="M113.066 39.3387L113.587 39.165L114.543 38.2098V38.0361L114.89 37.8624V37.6887L115.151 37.6019L115.498 37.2545V37.0808L115.845 36.9072V36.7335L116.193 36.5598V36.3861H116.366L116.801 35.9519V35.7782L117.148 35.6045L117.756 34.9098L118.364 34.3888L118.972 33.6941L119.406 33.3467L119.84 32.8257L120.014 32.7388V32.5651L120.361 32.3915V32.2178L120.708 32.0441L122.098 30.6546L122.271 30.5678V30.3941L122.619 30.2204V30.0468L122.966 29.8731L123.661 29.1784L123.921 29.0047V28.831L124.182 28.7442L124.616 28.2231L125.137 27.7889L125.745 27.0942L126.092 26.8337L126.179 27.0074L126.353 26.66L127.135 25.2705L127.221 24.9232L126.961 23.2732L126.44 21.8838L125.919 20.8417L124.616 18.6707L123.748 17.4549L123.661 17.2812H123.487L123.314 16.9339L122.358 15.7181L120.708 14.0681H120.535L120.361 13.7208L119.84 13.2866L119.406 12.8524L118.277 11.8971L116.627 10.6814L116.28 10.4208H116.019V10.2472L115.064 9.63929L114.716 9.55244V9.37877L113.761 8.85772L112.98 8.24984L112.111 7.81564H111.59L110.895 8.33668L110.374 8.77088L109.766 9.4656L107.943 11.2893V11.4629L107.595 11.6366L107.248 12.0708L106.553 12.6787L105.338 13.8945V14.0681L104.99 14.2418L104.556 14.5892L103.948 15.2839L102.125 17.1076V17.2812L101.777 17.4549V17.6286L101.517 17.7154L101.169 18.0628V18.2365L100.822 18.4102V18.5838H100.648L100.127 19.1917L99.6062 19.6259L99.172 20.147L98.6509 20.5812L98.1299 21.2759L98.3036 21.7101L98.5641 21.9706L99.3456 22.2311L99.9535 22.318L100.388 22.7522L102.472 24.0548L103.601 24.9232H103.775V25.0969L104.556 25.7048L105.424 26.4863L105.685 26.8337H105.859L106.032 27.181L106.38 27.6152H106.553L106.727 27.9626L107.248 28.6573H107.422L107.595 29.0915L108.551 30.3073L109.072 31.0889L109.506 31.9573L110.288 33.3467L111.503 35.7782L112.024 37.2545L112.372 38.0361L112.719 38.9913L113.066 39.3387Z" fill="#FCFCFC"/>
<path d="M13.4603 127.221H14.0682L17.2813 126.526L20.9286 125.658L23.7075 124.963L24.7496 124.616L25.1838 124.182L25.3574 123.487L25.4443 121.924V120.621L25.0101 120.1L24.5759 120.013H23.0996L19.8865 120.361H18.2365L17.3681 120.013L16.9339 119.319L16.8471 118.711L17.1944 117.408L17.8023 115.758L18.0628 114.89L17.976 114.282H17.2813L15.5445 114.977L14.8498 115.324L14.0682 115.584L13.1129 115.498L12.6787 115.237L12.3314 114.716V114.021L12.6787 112.806L13.4603 110.461L13.3735 110.027L12.7656 109.94L11.463 110.635L10.5946 110.982L9.63933 111.069L8.85777 110.548L8.42357 110.2L8.07621 110.287L7.90253 110.374L7.38149 111.763L6.86044 113.674L6.42624 115.15L5.81836 117.582V118.797L6.07888 119.145H6.25256L6.42624 119.492H6.59992L6.68676 119.753L7.38149 120.361L8.16305 121.142L8.77093 121.837L9.03145 121.924L9.20513 122.271L10.0735 123.226L11.0288 124.442L11.8972 125.571L12.0709 125.832H12.2445L12.4182 126.179L12.7656 126.613H12.9393L13.1129 126.96L13.4603 127.221Z" fill="#FDFDFD"/>
<path d="M48.9784 64.4354H49.4126L49.8468 64.088L50.281 63.6538V63.4801L50.6284 63.3064V63.1328L50.9758 62.9591V62.7854L51.3231 62.6117V62.438L51.5836 62.3512V62.1775L51.931 62.0038V61.8302L52.2784 61.6565V61.4828L52.6257 61.3091L56.7941 57.1408L57.4888 56.5329L60.7887 53.233L61.744 52.4514L62.1782 52.0172L61.744 51.9304H60.0071L58.3572 51.6698L54.9704 50.6277L54.1888 50.4541L53.4073 50.3672H52.0178L50.8021 50.5409L49.3258 50.9751L48.0232 51.6698L46.9811 52.6251L46.2864 53.754L45.8522 54.9698L45.5048 56.3592L45.418 56.9671V59.2249L45.5916 60.1802L46.0259 61.2223L46.6337 62.1775L47.6758 63.3064L48.2837 63.9143L48.9784 64.4354Z" fill="#FDFDFD"/>
<path d="M31.8702 79.0246H33.3465L34.0413 78.8509L34.9097 78.5036L35.6912 77.8957L36.1254 77.5483V77.3746H36.2991V77.2009L36.6465 77.0273L40.1201 73.5537V73.38H40.2938L40.728 72.6853L41.0753 71.4695V69.9932L40.8148 68.9511L40.2069 67.8222L39.6859 67.2143L38.6438 66.6933L38.3833 66.6064H36.4728L34.8228 67.0406L33.3465 67.6485L32.1308 68.3432L31.1755 69.1248L30.394 69.9932L29.6124 71.2958L28.744 73.38L28.5703 74.0747V75.551L29.0914 77.3746L29.5256 77.9825L30.6545 78.6772L31.8702 79.0246Z" fill="#FDFDFD"/>
<path d="M56.0983 105.077H57.3141L58.0956 104.729L58.7904 104.208L59.4851 103.427L60.1798 102.037L60.5272 100.909L60.7877 99.7796L60.8745 98.477V96.827L60.614 95.3507L60.1798 94.4823L59.6588 94.9165L59.3114 95.2639V95.4376L58.9641 95.6112L58.0956 96.4796L57.922 96.5665V96.7402L57.5746 96.9139L56.5325 97.9559L55.8378 98.5638L54.9694 99.4322L54.2747 100.04L53.6668 100.648L52.9721 101.256L52.3642 101.864L52.2773 102.385L53.3194 103.427L54.8826 104.556L55.5773 104.903L56.0983 105.077Z" fill="#FDFDFD"/>
<path d="M111.503 45.5911L112.198 45.2438L112.892 44.4622L112.979 44.2017L112.545 44.3754L112.111 44.6359L111.677 45.2438V45.4174H111.503V45.5911Z" fill="#FDFDFD"/>
</svg>
