<svg width="110" height="106" viewBox="0 0 110 106" fill="none" xmlns="http://www.w3.org/2000/svg">
<path d="M47.0405 92.7976C45.4121 97.1084 39.3141 97.1084 37.6857 92.7975L31.6087 76.71C31.0986 75.3596 30.0297 74.2955 28.677 73.7915L12.5748 67.7919C8.23579 66.1752 8.23579 60.0379 12.5748 58.4212L28.677 52.4215C30.0297 51.9175 31.0986 50.8535 31.6087 49.5031L37.6857 33.4155C39.3141 29.1046 45.4121 29.1046 47.0405 33.4155L53.1175 49.5031C53.6276 50.8535 54.6964 51.9175 56.0491 52.4215L72.1514 58.4212C76.4904 60.0379 76.4904 66.1752 72.1514 67.7919L56.0491 73.7915C54.6964 74.2955 53.6276 75.3596 53.1175 76.71L47.0405 92.7976Z" fill="white"/>
<path d="M89.39 37.0453C87.7407 41.3045 81.7142 41.3045 80.0648 37.0453L78.6658 33.4325C78.1549 32.1131 77.109 31.072 75.7873 30.5672L72.244 29.2138C67.9562 27.576 67.9562 21.5099 72.244 19.8721L75.7873 18.5186C77.109 18.0138 78.1549 16.9727 78.6658 15.6533L80.0648 12.0405C81.7142 7.78129 87.7407 7.78129 89.39 12.0405L90.7891 15.6533C91.3 16.9727 92.3459 18.0138 93.6676 18.5186L97.2108 19.8721C101.499 21.5099 101.499 27.576 97.2108 29.2138L93.6676 30.5672C92.3459 31.072 91.3 32.1131 90.7891 33.4325L89.39 37.0453Z" fill="white"/>
</svg>
