<svg width="115" height="142" viewBox="0 0 115 142" fill="none" xmlns="http://www.w3.org/2000/svg">
<path d="M81.0853 125.475C81.411 125.56 79.8757 126.127 79.831 126.32C79.7606 126.612 79.5864 126.863 79.3687 127.096C78.9692 127.535 78.4257 127.933 78.1249 128.475C77.7887 129.172 78.2783 129.809 77.7128 132.161C77.4076 133.299 76.9859 135.726 75.3532 138.428C73.6859 141.135 71.2237 141.791 68.5919 140.88C68.5916 140.88 68.5914 140.88 68.5911 140.88C68.4858 140.847 68.3797 140.811 68.2729 140.774C66.275 140.03 64.2961 138.271 61.8879 137.831C59.5337 137.36 43.9794 134.556 42.9979 136.655C42.0123 139.727 45.8956 137.35 45.6128 137.191C45.4545 137.044 44.0138 137.132 43.7103 136.937C42.8565 136.384 43.4376 135.788 40.9878 135.675C40.6257 135.66 40.197 135.655 39.687 135.66C41.6076 134.901 43.5305 134.15 45.4546 133.404C44.4419 133.202 46.9386 132.027 46.7413 131.817C46.5794 131.646 44.9776 131.87 44.8598 131.68C44.7182 131.467 46.3429 130.744 45.9964 130.381C45.436 129.783 41.2961 130.544 40.685 130.242C40.0522 129.929 42.1461 128.785 40.5819 128.549C40.1147 128.578 39.6474 128.606 39.1801 128.634C38.1668 128.901 37.1535 129.168 36.1403 129.436C35.6049 129.262 37.6779 128.697 37.6621 128.436C37.6448 128.13 35.623 128.4 35.5898 128.199C35.5641 128.032 37.1124 127.472 36.9673 127.281C36.764 127 34.4753 127.558 34.0088 127.482C33.8271 127.45 32.296 126.492 32.263 126.427C32.0611 125.921 35.2046 125.208 35.3917 124.73C35.663 124.028 34.9889 123.506 34.1239 123.054C34.0663 123.024 34.008 122.994 33.949 122.964C33.2321 122.597 32.4235 122.27 31.9086 121.88C31.3748 121.48 31.4483 120.92 31.8365 120.245C40.0923 119.45 45.9988 116.275 33.4902 119.539C35.1587 118.523 31.6224 118.563 32.0948 117.851C32.2525 117.619 32.7768 117.368 33.2362 117.113C33.68 116.87 34.0385 116.487 33.9466 116.043C33.6002 114.423 28.4299 113.487 37.5628 112.405C35.8397 111.252 39.1178 110.101 30.9896 110.147C30.4764 109.861 35.266 108.863 35.9081 108.53C36.5075 108.179 38.5989 105.883 38.7112 105.544C38.8195 105.163 38.9327 104.576 38.211 104.282C37.3191 103.952 28.8961 103.923 38.7154 102.977C37.898 102.242 38.1723 101.952 39.2977 101.219C39.5012 101.084 40.9617 101.033 40.9611 100.957C40.9571 100.792 39.8717 100.573 39.7337 100.301C39.5078 99.8567 42.5759 99.5213 37.882 99.6768C37.0883 99.3951 36.295 99.1261 35.5016 98.8405C36.4056 98.7166 37.3096 98.5923 38.2136 98.4677C37.2228 98.3241 36.2321 98.1846 35.2415 98.0495C42.0394 98.1033 38.0087 97.0719 34.117 97.5056C35.5114 96.8861 36.9073 96.3091 38.3031 95.7035C46.0265 95.6465 39.174 94.4386 34.977 94.6124C34.982 94.5468 34.9871 94.481 34.9922 94.415C37.0358 93.7966 35.3495 93.3103 36.7176 92.5884C38.0857 91.8614 38.8387 91.9173 42.3882 91.6645C42.1827 91.5069 41.9772 91.3481 41.7717 91.188C35.7192 90.7317 39.9235 90.5305 42.1903 90.1116C43.575 89.8662 44.2369 89.5441 41.3982 89.0172C47.5134 88.4676 44.2866 87.375 42.4233 86.6139C42.2069 86.5257 41.0188 86.5356 40.6514 86.4184C39.7675 86.133 41.2881 85.3927 37.4562 85.4497C38.5627 85.1841 39.6691 84.917 40.7757 84.6486C40.077 84.4438 39.3784 84.2334 38.6799 84.036C37.4837 84.0471 36.2874 84.0582 35.0912 84.0693C39.1647 83.6196 37.5925 82.9711 38.5647 82.633C38.7618 82.5658 40.4119 82.5389 40.8604 82.3311C41.3928 82.0819 40.9013 81.6608 41.4147 81.3749C39.586 81.2797 37.7572 81.1841 35.9285 81.0881C34.9333 80.5915 39.757 80.378 40.1297 80.0771C40.1945 80.0175 39.8414 79.0648 39.738 79.0107C38.9187 78.5897 34.8089 78.7354 35.6815 77.4888C35.8394 77.2695 37.2607 77.0838 37.3166 76.8851C37.4176 76.536 34.1857 75.4879 31.2045 75.4198C34.9327 74.9778 33.4016 73.8462 34.4778 73.5009C34.8087 73.3971 37.1848 73.3618 37.689 73.0452C38.1002 72.7932 36.1942 72.1553 36.5111 71.8329C36.8562 71.491 38.8519 71.3595 38.9923 71.206C39.1228 71.0609 37.5107 70.9351 37.5191 70.7375C37.5725 70.1274 40.1639 69.5643 40.2095 69.0795C40.2815 68.3763 35.5078 67.7813 33.3871 67.2049C33.6958 67.0585 34.7194 66.9116 34.7281 66.7591C34.8708 64.8703 35.7426 62.7476 36.7586 60.8521C37.2251 59.976 43.6954 57.7767 32.891 58.3882C30.9977 58.0886 35.3488 55.8618 35.4134 55.4405C35.4774 55.0191 33.539 54.6896 33.5097 54.3586C33.4231 53.3603 34.8178 52.6523 33.1282 51.4403C32.6865 51.1272 30.3903 50.7963 30.4166 50.6096C30.4537 50.3849 32.6734 50.1392 32.8139 49.8485C33.1314 49.1553 32.3989 47.8702 32.782 47.2035C32.8568 47.0821 34.8062 47.0365 35.4152 46.8624C37.7948 46.1845 37.5873 45.4317 31.3636 45.5731C34.8958 44.6988 31.6717 43.9066 31.4733 43.1065C31.068 41.4045 32.5178 38.3296 29.9015 36.8472C28.251 35.926 25.4595 35.9409 27.8674 34.5708C28.4014 34.266 29.1218 33.9705 29.7589 33.5978C31.2581 32.7208 36.4146 31.9386 30.2002 31.28C31.8114 30.3039 30.6682 29.5675 35.9824 28.8381C34.7077 28.7538 33.4331 28.6696 32.1584 28.5856C32.1269 28.4673 32.0953 28.3494 32.0637 28.2317C33.2793 28.1946 34.4949 28.1576 35.7105 28.1206C36.0376 27.2917 31.041 26.1998 31.0774 25.4987C31.1333 24.2847 33.0742 21.2442 34.7146 20.0826C35.5856 19.488 32.9821 19.4596 38.3339 19.1061C37.9616 18.9692 37.5893 18.8332 37.217 18.6982C36.0451 18.6137 34.8732 18.5295 33.7014 18.4457C33.688 18.2265 33.8268 17.9982 34.0316 17.7689C34.544 17.1775 35.4694 16.56 35.4561 16.0345C35.4186 14.6943 32.1934 12.6818 34.3117 11.3359C34.8459 10.9984 37.2626 10.5766 37.2353 10.2462C37.1978 9.76519 33.1874 9.6483 33.1124 9.03795C32.9905 7.98602 37.6495 6.02699 37.2933 5.03272C37.1901 4.73741 35.6979 4.59962 35.5385 4.39571C34.8542 3.54067 34.9758 2.83868 32.6699 2.01879C36.513 1.13845 41.4736 1.2145 46.4791 0.941674C50.257 0.734912 59.0121 0.10091 62.3208 0.0109095C64.6454 -0.05231 67.6356 0.183731 70.1944 0.0951416C72.2377 1.14987 69.9883 1.59298 66.3888 2.44943C66.5322 4.03106 66.6757 5.61269 66.8191 7.19432C65.4224 7.33822 64.0257 7.48212 62.629 7.62601C62.626 7.62601 62.6229 7.62601 62.6199 7.62601C61.008 8.23341 64.6049 8.49085 65.4214 8.81842C70.8228 10.9853 69.5713 14.6016 67.9911 17.7689C67.2842 19.1608 66.5116 20.5033 66.2393 21.5728C66.052 22.308 67.9343 24.729 65.666 25.2497C65.0753 25.3798 62.9216 25.4164 62.8279 25.5555C64.1089 26.8096 65.3899 28.0556 66.6711 29.3271C63.3256 31.9067 66.0908 34.5712 66.6084 37.1725C68.0107 44.2105 69.7186 51.1725 69.2216 58.0863C69.122 59.4248 70.7406 61.1139 69.7044 62.425C69.2748 62.9711 65.8171 63.2094 68.3972 63.9198C67.4654 63.9306 66.5336 63.9414 65.6019 63.9521C66.7289 64.575 68.8506 64.9667 69.0688 65.6643C69.249 66.2598 69.3936 67.8157 69.0397 68.3398C68.8628 68.6125 67.1212 68.5186 67.1311 68.7718C67.1611 69.2067 69.5722 70.1132 69.5751 70.7093C69.5776 71.2532 67.5764 72.1723 67.869 72.5825C68.9077 74.076 71.8896 75.6878 71.1027 77.2739C70.8799 77.7097 68.6261 78.2998 68.69 78.4352C68.8229 78.7035 71.0164 78.7687 71.2996 78.9465C72.7302 79.8354 70.1345 81.3021 70.0382 82.1926C69.7703 84.6759 70.4444 87.2823 70.4257 89.7795C70.4225 90.2293 70.398 90.6669 70.3434 91.0921C70.1129 92.9269 70.546 95.9198 68.931 97.6186C68.5823 97.9949 66.1782 97.9456 66.1845 98.2512C66.192 98.5881 67.8185 98.7297 67.953 98.8788C68.8941 99.9593 70.5944 102.256 68.9694 103.302C68.6572 103.508 66.7802 103.708 66.7908 103.822C66.7927 103.88 68.081 103.967 68.2182 104.137C69.4353 105.686 68.7326 106.846 68.3743 108.284C68.2223 108.893 68.2404 109.508 68.3439 109.983C68.3959 110.225 68.469 110.427 68.5475 110.549C68.6308 110.699 68.6899 110.611 68.8196 110.919C69.1347 111.752 69.3757 112.079 69.6176 112.886C69.8498 113.646 70.0014 114.503 69.9374 115.372C69.9343 115.416 69.9306 115.459 69.9265 115.502C69.914 115.619 69.8985 115.741 69.8785 115.864C69.7511 116.622 66.2102 117.876 66.2675 117.966C66.3872 118.17 68.867 117.791 69.5645 118.099C71.8618 119.136 69.6632 121.649 71.1858 122.765C71.9362 123.316 75.2448 123.581 76.0751 124.093C76.7386 124.504 75.7896 126.009 77.2036 125.939C78.0578 125.897 80.7178 125.382 81.0853 125.475ZM35.8836 114.815C40.1907 114.401 36.4399 113.264 34.1932 114.09C33.6869 114.291 34.7615 114.915 35.8836 114.815ZM42.3024 64.2106C41.0654 64.2244 39.8285 64.2383 38.5916 64.2521C39.1068 64.3865 39.622 64.5208 40.1372 64.655C40.8805 64.5759 41.6239 64.4968 42.3672 64.4177C42.3456 64.3487 42.324 64.2797 42.3024 64.2106ZM102.986 44.1014C103.072 43.7973 103.3 45.4098 103.428 45.489C103.937 45.8389 104.191 46.9501 104.613 47.5612C104.892 48.0225 105.537 47.654 105.168 48.7005C104.873 49.3029 104.613 49.9157 102.052 52.4329C100.857 53.6206 98.4422 56.3016 98.0018 58.508C97.56 60.653 98.8948 60.9999 99.9972 61.8431C99.9975 61.8433 99.9977 61.8434 99.9979 61.8436C100.089 61.906 100.181 61.9695 100.274 62.0337C101.608 63.674 105.672 62.6901 106.91 65.0371C108.542 66.8077 116.411 80.716 113.401 82.764C110.151 84.8833 108.654 80.74 108.266 81.0086C108.038 81.1531 107.903 82.5946 107.635 82.8691C106.799 83.7493 106.371 82.729 105.84 86.6337C105.462 84.6111 105.065 82.5884 104.716 80.5626C104.419 81.5231 103.774 78.8574 103.587 79.0129C103.424 79.1412 103.384 80.7567 103.204 80.8384C103.018 80.9385 102.664 79.2092 102.309 79.4833C101.756 79.9233 101.783 84.1317 101.436 84.6765C101.104 85.2395 100.46 82.9695 100.055 84.4607C100.01 84.9249 99.9653 85.389 99.9199 85.8531C99.9867 86.8985 100.054 87.9439 100.121 88.9893C99.9037 89.4822 99.7509 87.3401 99.5349 87.3064C99.2785 87.2656 99.1952 89.3019 99.0332 89.2962C98.8983 89.2898 98.6782 87.6635 98.502 87.7695C98.2439 87.9157 98.3506 90.2685 98.217 90.712C98.1453 90.8849 97.1769 92.2039 97.1071 92.2237C96.6554 92.3251 96.5657 89.1033 96.2173 88.8276C95.2307 88.0764 94.2938 90.6955 93.4124 91.6922C93.0288 92.138 92.6097 91.9564 92.1965 91.4462C92.716 83.1904 91.2634 76.7891 91.9354 89.6885C91.4847 87.8579 91.2178 91.3457 90.7886 90.7615C90.6354 90.5513 90.5021 89.9131 90.3469 89.3917C90.2277 88.9678 90.0951 88.6212 89.9264 88.644C89.2652 88.7459 88.5375 93.8405 88.2684 84.648C87.5072 86.2765 86.773 82.9477 86.5583 91.0669C86.3625 91.5645 85.8019 86.7343 85.5669 86.0795C85.3404 85.4629 83.6677 83.2929 83.3964 83.1729C83.1251 83.0531 82.6397 82.924 82.4176 83.6377C82.1417 84.5208 82.0006 92.9399 81.4242 83.1013C80.8382 83.9017 80.6087 83.6215 80.0589 82.4814C79.9589 82.2753 79.9387 80.8142 79.8809 80.8132C79.7619 80.8139 79.5655 81.895 79.3522 82.028C79.0012 82.2457 78.7803 79.1723 78.8474 83.8682C78.6182 84.6569 78.3878 85.4456 78.1562 86.2342C78.0703 85.3283 77.9848 84.4224 77.899 83.5165C77.7815 84.5049 77.6636 85.4934 77.5454 86.4818C77.6541 79.6854 76.8038 83.7003 77.1079 87.5981C76.6508 86.1946 76.1849 84.7912 75.728 83.3876C75.7528 75.664 74.7418 82.5011 74.8487 86.7001C74.7971 86.6942 74.7455 86.6884 74.6939 86.6825C74.2345 84.6318 73.8171 86.3128 73.2659 84.9373C72.7137 83.5619 72.761 82.8096 72.5792 79.2579C72.4511 79.4619 72.3228 79.6659 72.1943 79.8699C71.5578 89.6117 71.5949 72.7495 70.4746 80.2248C70.0826 74.1053 69.1776 77.3239 68.5762 79.182C68.5069 79.3978 68.5099 80.5859 68.4177 80.9526C68.1925 81.8344 67.6021 80.3091 67.6349 84.1413C67.4283 83.0332 67.2214 81.9251 67.0143 80.817C66.8503 81.5143 66.6861 82.2117 66.5215 82.909C66.5262 84.1053 66.5309 85.3016 66.5355 86.4979C66.1844 82.4218 65.6709 83.9903 65.4082 83.0163C65.3562 82.8188 65.3401 81.1686 65.1788 80.719C64.9903 80.1852 64.6427 80.6746 64.4177 80.1597C64.336 81.9879 64.2543 83.8162 64.1724 85.6444C63.7739 86.637 63.6218 81.8124 63.3872 81.4382C63.3453 81.3732 62.5781 81.7218 62.5367 81.825C62.1993 82.6424 62.307 86.7527 61.32 85.8747C61.1449 85.7159 61.0007 84.2939 60.8429 84.2371C60.5644 84.1347 59.7311 87.3624 59.6713 90.3434C59.3239 86.6135 58.4203 88.1404 58.1521 87.0629C58.071 86.7317 58.0479 84.3554 57.7996 83.8501C57.5984 83.4381 57.0855 85.3419 56.8303 85.0239C56.5594 84.6777 56.4592 82.6816 56.3378 82.5407C56.2231 82.4097 56.1209 84.0214 55.9652 84.0124C55.479 83.957 55.0343 81.364 54.6502 81.3169C54.0945 81.2428 53.6115 86.0148 53.1492 88.1339C53.0333 87.8248 52.9183 86.8009 52.7972 86.7917C51.3006 86.6439 49.6099 85.7669 48.1081 84.7468C47.4078 84.2784 45.6754 77.8036 46.1461 88.6093C45.9038 90.502 44.137 86.1466 43.8056 86.0812C43.4735 86.0165 43.2048 87.9543 42.9417 87.9831C42.1433 88.0679 41.594 86.672 40.6219 88.3597C40.3713 88.8009 40.1044 91.0966 39.9565 91.07C39.7783 91.0326 39.5859 88.8125 39.356 88.6715C38.8134 88.3531 37.777 89.0837 37.2523 88.6997C37.1562 88.6247 37.122 86.6753 36.9846 86.0661C36.4526 83.6855 35.8479 83.8921 35.9555 90.116C35.2623 86.5826 34.628 89.8058 33.9975 90.0032C32.6361 90.4064 30.1913 88.9533 29.0174 91.5683C28.272 93.2179 28.289 96.0093 27.2105 93.6002C26.9648 93.0659 26.7215 92.3453 26.4273 91.7078C25.7362 90.2078 25.1267 85.0507 24.5859 91.2645C23.8128 89.6525 23.2341 90.7951 22.6509 85.4804C22.5828 86.755 22.5147 88.0296 22.4468 89.3042C22.3527 89.3357 22.2588 89.3672 22.1653 89.3986C22.1368 88.183 22.1083 86.9674 22.0799 85.7517C21.4237 85.424 20.5495 90.4198 19.9893 90.383C19.5096 90.3529 18.5401 89.7944 17.682 89.032C16.8556 88.354 16.1414 87.5147 15.6899 86.7422C15.2052 85.8707 15.1801 88.4742 14.9134 83.1222C14.8076 83.4944 14.7027 83.8666 14.5984 84.2388C14.5341 85.4107 14.4624 86.5825 14.3927 87.7543C13.7556 87.8006 13.0636 85.9798 12.4578 85.9978C11.4045 86.0344 9.78934 89.258 8.71716 87.1384C8.45471 86.6039 8.1211 84.1868 7.85286 84.2138C7.46768 84.2508 7.38607 88.2612 6.88516 88.3355C6.05126 88.4563 4.48998 83.7949 3.69805 84.1494C3.472 84.2521 3.34787 85.7441 3.18466 85.9031C2.49924 86.5859 1.9365 86.463 1.2627 88.7665C0.565147 84.9206 0.628296 79.9599 0.447111 74.9534C0.366767 73.0639 0.2181 69.9296 0.0995861 66.8537C0.0495737 65.3158 -0.00952214 63.7922 0.0014019 62.4469C0.00918233 61.7745 0.0210066 61.146 0.113231 60.5854C0.153038 60.3051 0.22041 60.0416 0.3511 59.8022C0.429948 59.6838 0.432683 59.5639 0.61608 59.4651C0.769182 59.3642 0.966243 59.2751 1.20261 59.2043C1.2606 59.1384 1.80556 59.1431 2.33171 59.2025C2.60607 59.2335 2.90922 59.283 3.22238 59.3513C3.37884 59.3854 3.53751 59.424 3.69502 59.4661C3.77377 59.4871 3.85222 59.509 3.92995 59.5316C3.99705 59.5489 4.26037 59.6538 4.42776 59.7249C5.98677 60.3794 7.10306 61.3351 7.37452 61.4899C7.69077 61.6902 7.64704 61.543 7.72104 61.5065C7.76029 61.4419 7.88398 61.4306 7.40005 60.8828C6.9997 60.3744 5.42089 59.157 4.26999 58.6383C3.17662 57.9983 1.97793 57.6064 1.56453 57.3864C1.00693 56.9762 0.645415 56.6296 0.578777 56.2898C0.448373 55.9474 0.361774 55.6062 0.33686 55.2654C0.188694 53.9012 0.218282 52.5154 0.330972 51.2384C0.360844 49.1922 1.18052 51.4486 1.72201 55.0489C2.95934 54.9093 4.21076 54.7681 5.47193 54.6267C5.59118 56.0235 5.69613 57.4204 5.80611 58.8172C5.80611 58.8203 5.8061 58.8233 5.8061 58.8264C6.27943 60.439 6.50457 56.8424 6.75494 56.0262C9.24384 48.2122 14.1773 54.3353 16.8928 55.2184C17.0678 55.2739 17.3617 55.1485 17.707 55.0029C18.4703 54.6566 19.5581 54.1968 19.8186 55.7942C19.9218 56.385 19.9492 58.5387 20.06 58.6325C21.0681 57.3524 22.0477 56.0723 23.0665 54.7921C25.1059 58.1396 27.2382 55.3768 29.3118 54.8617C34.9043 53.4663 40.445 51.7675 45.9514 52.2782C47.0104 52.3803 48.3658 50.7654 49.4034 51.8046C49.838 52.2355 50.0234 55.6938 50.5915 53.1154C50.5987 54.0472 50.6059 54.979 50.6131 55.9108C51.1111 54.7853 51.4254 52.6646 51.9834 52.4482C52.4529 52.2695 53.6977 52.1292 54.1134 52.4847C54.3291 52.6624 54.2517 54.4037 54.4527 54.3945C54.7967 54.3658 55.5274 51.9574 56.0016 51.9565C56.4314 51.9557 57.1609 53.96 57.4907 53.6687C58.6766 52.6353 59.9712 49.6594 61.2364 50.453C61.5884 50.6776 62.0453 52.934 62.1549 52.8708C62.369 52.739 62.4271 50.5458 62.5702 50.2635C63.2946 48.8369 64.444 51.4397 65.1603 51.541C67.4964 51.8714 69.96 50.9055 72.2878 51.2986C73.7436 51.5456 76.1945 51.1478 77.549 52.7898C77.8403 53.1444 77.7752 55.5473 78.0194 55.546C78.295 55.5439 78.4338 53.92 78.5609 53.7881C79.4341 52.8645 81.3711 51.2114 82.1946 52.8646C82.3511 53.182 82.4853 55.0636 82.58 55.0561C82.6285 55.0557 82.7288 53.7703 82.8791 53.6379C84.1906 52.4659 85.1759 53.2072 86.4601 53.6364C87.5807 53.9981 88.769 53.7177 89.9403 53.4069C91.4558 53.0196 92.9252 52.5853 94.3781 53.2791C94.9316 53.5515 95.401 57.2674 95.4743 57.2287C95.6461 57.1505 95.7094 54.6446 96.0408 54.0198C97.1733 51.9655 98.7792 54.6036 99.8252 53.3189C100.341 52.6864 100.968 49.487 101.442 48.7669C101.828 48.1919 102.781 49.4029 102.895 48.0002C102.962 47.1532 102.889 44.4452 102.986 44.1014ZM89.5002 86.5581C89.535 82.2269 88.7348 85.8344 89.0736 88.1557C89.1508 88.6783 89.4923 87.6824 89.5002 86.5581ZM50.7842 79.2108C50.7934 80.4478 50.8025 81.6848 50.8117 82.9217C50.9194 82.4069 51.0271 81.892 51.1347 81.3771C51.0728 80.6336 51.011 79.8901 50.9491 79.1465C50.8941 79.168 50.8392 79.1894 50.7842 79.2108Z" fill="white"/>
</svg>
